<?xml version="1.0" encoding="UTF-8"?>
<svg xmlns="http://www.w3.org/2000/svg" width="132" height="125" viewBox="0 0 132 125" fill="none">
  <g id="Group">
    <path id="Vector" d="M23.9964 101.845V95.0976C23.9964 92.5605 22.3762 90.8514 19.768 90.8247C18.3971 90.798 16.9817 91.2253 15.9936 92.7386C15.2547 91.5457 14.0797 90.8247 12.4417 90.8247C11.2934 90.8247 10.1717 91.1629 9.29042 92.4181V91.0917H6.94922V101.836H9.30823V95.881C9.30823 94.0116 10.3408 93.0234 11.9432 93.0234C13.5455 93.0234 14.2844 94.0383 14.2844 95.8542V101.836H16.6434V95.881C16.6434 94.0116 17.7205 93.0234 19.2784 93.0234C20.8362 93.0234 21.6374 94.0383 21.6374 95.8542V101.836H23.9964V101.845ZM58.9453 91.1006H55.1264V87.8425H52.7674V91.1006H50.5864V93.2371H52.7674V98.142C52.7674 100.635 53.7377 102.121 56.4973 102.121C57.5121 102.121 58.6782 101.81 59.4171 101.293L58.7406 99.2904C58.0462 99.691 57.2806 99.8957 56.6753 99.8957C55.5092 99.8957 55.1264 99.1747 55.1264 98.0975V93.2371H58.9453V91.1006ZM78.8945 90.8336C77.5414 90.8336 76.669 91.4656 76.0637 92.4092V91.1006H73.7492V101.845H76.0904V95.8186C76.0904 94.0383 76.8559 93.0502 78.3871 93.0502C78.8589 93.0502 79.3574 93.1214 79.847 93.3172L80.568 91.1095C80.0517 90.9048 79.3752 90.8158 78.9034 90.8158L78.8945 90.8336ZM48.7348 91.9552C47.6132 91.2164 46.0553 90.8336 44.3462 90.8336C41.6222 90.8336 39.8685 92.1422 39.8685 94.2697C39.8685 96.0234 41.1771 97.1005 43.5806 97.4388L44.6844 97.599C45.9663 97.7771 46.5716 98.1153 46.5716 98.7207C46.5716 99.5485 45.7171 100.029 44.1236 100.029C42.5302 100.029 41.3373 99.5129 40.545 98.9076L39.4412 100.733C40.7231 101.676 42.3432 102.13 44.0969 102.13C47.2037 102.13 49.0019 100.67 49.0019 98.6227C49.0019 96.7355 47.5865 95.7474 45.2453 95.4092L44.1414 95.2489C43.1266 95.1154 42.3165 94.9107 42.3165 94.1896C42.3165 93.4062 43.0821 92.9344 44.364 92.9344C45.7349 92.9344 47.0612 93.4507 47.7111 93.8602L48.7259 91.973L48.7348 91.9552ZM111.386 90.8336C110.033 90.8336 109.161 91.4656 108.556 92.4092V91.1006H106.241V101.845H108.582V95.8186C108.582 94.0383 109.348 93.0502 110.879 93.0502C111.351 93.0502 111.849 93.1214 112.339 93.3172L113.06 91.1095C112.544 90.9048 111.867 90.8158 111.395 90.8158L111.386 90.8336ZM16.9906 115.795H13.3141V124.412H10.9551V115.795H8.80082V113.658H10.9551V111.842C10.9551 109.688 12.0411 107.97 14.5604 107.97C15.8155 107.97 16.7591 108.308 17.5603 108.78L16.7324 110.756C16.1805 110.444 15.4327 110.186 14.7295 110.186C13.8215 110.186 13.323 110.783 13.323 111.851V113.667H16.9995V115.803L16.9906 115.795ZM29.3642 119.053C29.3642 115.83 26.8984 113.4 23.578 113.4C20.2576 113.4 17.8007 115.83 17.8007 119.053C17.8007 122.275 20.2576 124.705 23.578 124.705C26.8984 124.705 29.3642 122.275 29.3642 119.053ZM20.2042 119.053C20.2042 117.023 21.6552 115.608 23.5691 115.608C25.483 115.608 26.9429 117.023 26.9429 119.053C26.9429 121.082 25.483 122.498 23.5691 122.498C21.6552 122.498 20.2042 121.082 20.2042 119.053ZM41.2394 113.658H38.8804V119.64C38.8804 121.714 37.7231 122.48 36.2543 122.48C34.7855 122.48 33.6283 121.714 33.6283 119.64V113.658H31.2692V119.854C31.2692 123.272 33.7262 124.688 36.2543 124.688C38.7825 124.688 41.2394 123.272 41.2394 119.854V113.658ZM54.1205 117.655C54.1205 115.145 52.3134 113.382 49.7585 113.382C48.6547 113.382 47.3283 113.712 46.4559 114.976V113.667H44.1236V124.42H46.4826V118.465C46.4826 116.622 47.7467 115.625 49.2689 115.625C50.7911 115.625 51.7704 116.631 51.7704 118.438V124.42H54.1294V117.664M80.6037 113.667H78.2625V114.967C77.5236 114.014 76.4109 113.382 74.8886 113.382C71.8798 113.382 69.5119 115.75 69.5119 119.035C69.5119 122.32 71.8798 124.688 74.8886 124.688C76.4109 124.688 77.5236 124.073 78.2625 123.121V124.412H80.6037V113.658V113.667ZM71.9154 119.044C71.9154 117.157 73.1349 115.599 75.1557 115.599C77.1764 115.599 78.396 117.076 78.396 119.044C78.396 121.011 77.0963 122.489 75.1557 122.489C73.2151 122.489 71.9154 120.931 71.9154 119.044ZM109.855 119.053C109.855 115.83 107.39 113.4 104.069 113.4C100.749 113.4 98.2918 115.83 98.2918 119.053C98.2918 122.275 100.749 124.705 104.069 124.705C107.39 124.705 109.855 122.275 109.855 119.053ZM100.695 119.053C100.695 117.023 102.146 115.608 104.06 115.608C105.974 115.608 107.434 117.023 107.434 119.053C107.434 121.082 105.974 122.498 104.06 122.498C102.146 122.498 100.695 121.082 100.695 119.053ZM122.015 117.655C122.015 115.145 120.208 113.382 117.653 113.382C116.55 113.382 115.223 113.712 114.351 114.976V113.667H112.019V124.42H114.378V118.465C114.378 116.622 115.642 115.625 117.164 115.625C118.686 115.625 119.665 116.631 119.665 118.438V124.42H122.024V117.664M90.8587 113.658H87.0664V110.427H84.7252V113.658H82.5621V115.777H84.7252V120.637C84.7252 123.112 85.6867 124.581 88.4284 124.581C89.4344 124.581 90.5916 124.269 91.3305 123.753L90.6628 121.768C89.9685 122.168 89.2118 122.373 88.6065 122.373C87.4492 122.373 87.0664 121.661 87.0664 120.593V115.777H90.8587V113.658ZM67.322 109.341V124.42H64.9808V123.112C64.2419 124.082 63.1114 124.688 61.5803 124.688C58.5625 124.688 56.2035 122.32 56.2035 119.035C56.2035 115.75 58.5714 113.382 61.5803 113.382C63.1114 113.382 64.233 113.987 64.9808 114.958V109.332H67.322V109.341ZM61.874 122.48C63.8057 122.48 65.1143 120.993 65.1143 119.035C65.1143 117.076 63.8057 115.59 61.874 115.59C59.9423 115.59 58.607 117.139 58.607 119.035C58.607 120.931 59.8444 122.48 61.874 122.48ZM96.1286 113.649H93.7607V124.412H96.1286V113.649ZM94.9357 108.459C93.9921 108.459 93.2889 109.18 93.2889 110.124C93.2889 111.068 93.9832 111.771 94.9357 111.771C95.8882 111.771 96.6004 111.05 96.6004 110.124C96.6004 109.198 95.8526 108.459 94.9357 108.459ZM81.2713 96.4774C81.2713 99.7355 83.5413 102.121 87.0041 102.121C88.6243 102.121 89.7014 101.765 90.8676 100.839L89.7459 98.9521C88.8646 99.5842 87.9477 99.9224 86.9329 99.9224C85.0635 99.8957 83.6926 98.5515 83.6926 96.4774C83.6926 94.4032 85.0635 93.0591 86.9329 93.0412C87.9477 93.0412 88.8646 93.3795 89.7459 94.0116L90.8676 92.1244C89.7014 91.1986 88.6154 90.8425 87.0041 90.8425C83.5413 90.8425 81.2713 93.2282 81.2713 96.4863V96.4774ZM103.17 96.4774V91.1006H100.829V92.4092C100.09 91.4389 98.9594 90.8336 97.4372 90.8336C94.4283 90.8336 92.0604 93.1926 92.0604 96.4774C92.0604 99.7622 94.4194 102.121 97.4372 102.121C98.9683 102.121 100.09 101.516 100.829 100.546V101.854H103.17V96.4774ZM94.4639 96.4774C94.4639 94.5902 95.7013 93.0412 97.722 93.0412C99.7428 93.0412 100.962 94.5279 100.962 96.4774C100.962 98.4269 99.6537 99.9224 97.722 99.9224C95.7903 99.9224 94.4639 98.3735 94.4639 96.4774ZM66.2449 90.8336C63.0936 90.8336 60.8948 93.1303 60.8948 96.4774C60.8948 99.8245 63.1915 102.121 66.4051 102.121C68.0253 102.121 69.5119 101.721 70.8116 100.617L69.6632 98.8809C68.7641 99.602 67.6158 100.003 66.5386 100.003C65.0342 100.003 63.6633 99.3082 63.325 97.3676H71.3101C71.3368 97.0738 71.3546 96.7801 71.3546 96.4685C71.3279 93.1214 69.2626 90.8247 66.2538 90.8247L66.2449 90.8336ZM66.2004 92.9255C67.7048 92.9255 68.6751 93.8691 68.9243 95.5338H63.3518C63.601 93.9849 64.5446 92.9255 66.2093 92.9255H66.2004ZM124.873 96.4774V86.7832H122.532V92.4092C121.793 91.4389 120.662 90.8336 119.14 90.8336C116.122 90.8336 113.763 93.1926 113.763 96.4774C113.763 99.7622 116.122 102.121 119.14 102.121C120.671 102.121 121.793 101.516 122.532 100.546V101.854H124.873V96.4774ZM116.167 96.4774C116.167 94.5902 117.404 93.0412 119.425 93.0412C121.446 93.0412 122.665 94.5279 122.665 96.4774C122.665 98.4269 121.357 99.9224 119.425 99.9224C117.493 99.9224 116.167 98.3735 116.167 96.4774ZM37.189 96.4774V91.1006H34.8478V92.4092C34.109 91.4389 32.9784 90.8336 31.4562 90.8336C28.4473 90.8336 26.0794 93.1926 26.0794 96.4774C26.0794 99.7622 28.4384 102.121 31.4562 102.121C32.9873 102.121 34.109 101.516 34.8478 100.546V101.854H37.189V96.4774ZM28.4829 96.4774C28.4829 94.5902 29.7203 93.0412 31.7411 93.0412C33.7618 93.0412 34.9813 94.5279 34.9813 96.4774C34.9813 98.4269 33.6728 99.9224 31.7411 99.9224C29.8093 99.9224 28.4829 98.3735 28.4829 96.4774Z" fill="#141413"></path>
    <g id="Group_2">
      <path id="Vector_2" d="M83.3719 9.17554H47.9512V72.8331H83.3719V9.17554Z" fill="#F26522"></path>
      <path id="Vector_3" d="M50.2037 41.0091C50.2037 28.0924 56.2481 16.5911 65.6663 9.18476C58.7762 3.75459 50.088 0.523193 40.643 0.523193C18.2903 0.523193 0.166016 18.6475 0.166016 41.0091C0.166016 63.3707 18.2903 81.495 40.643 81.495C50.088 81.495 58.7762 78.2636 65.6574 72.8423C56.2392 65.427 50.1948 53.9258 50.1948 41.018L50.2037 41.0091Z" fill="#E51B24"></path>
      <path id="Vector_4" d="M127.302 66.0944V64.7948H127.827V64.5277H126.492V64.7948H127.017V66.0944H127.302ZM129.902 66.0944V64.5188H129.492L129.02 65.5959L128.549 64.5188H128.139V66.0944H128.433V64.9105L128.878 65.9342H129.181L129.626 64.9105V66.0944H129.919H129.902Z" fill="black"></path>
      <path id="Vector_5" d="M131.165 41.0091C131.165 63.3707 113.041 81.495 90.6882 81.495C81.2433 81.495 72.555 78.2636 65.6738 72.8423C75.0921 65.427 81.1365 53.9258 81.1365 41.018C81.1365 28.1102 75.0921 16.6 65.6738 9.19366C72.5461 3.75459 81.2344 0.523193 90.6793 0.523193C113.032 0.523193 131.156 18.6475 131.156 41.0091H131.165Z" fill="#F99F1C"></path>
    </g>
  </g>
</svg>
