<?xml version="1.0" encoding="UTF-8"?>
<!-- Generator: Adobe Illustrator 25.2.1, SVG Export Plug-In . SVG Version: 6.00 Build 0)  -->
<svg xmlns="http://www.w3.org/2000/svg" xmlns:xlink="http://www.w3.org/1999/xlink" version="1.1" id="Layer_1" x="0px" y="0px" width="256.6px" height="92.1px" viewBox="0 0 256.6 92.1" style="enable-background:new 0 0 256.6 92.1;" xml:space="preserve">
<style type="text/css">
	.st0{fill:#002554;}
	.st1{fill-rule:evenodd;clip-rule:evenodd;fill:#002554;}
</style>
<g>
	<path id="Shield__x0026__Scroll_7_" class="st0" d="M38.2,71l-0.5-1.2l-0.8-1.6c-0.6-1.2-1.5-1.8-2.6-1.9c2.5-4.4,4.3-9.6,4.3-15.8   V31.3c0-0.1-0.1-0.2-0.2-0.2h-19h0h-19c-0.1,0-0.2,0.1-0.2,0.2v19.2c0,6.1,1.8,11.4,4.3,15.8c-1.1,0.1-2,0.8-2.6,1.9L1,69.9L0.4,71   c-0.5,1-1,3.1,1,5.7c1.7,2.1,5.1,4.3,9.3,6l0.2,0.1c0.4,0.1,0.7,0.3,1,0.4c-0.3,0.3-0.8,0.7-1.2,1l-0.3,0.3   c-0.1,0.1-0.2,0.1-0.2,0.2c0,0,0,0,0,0c0,0,0,0.1-0.1,0.1c-0.3,0.4-0.5,0.8-0.5,1.6v3.7c0,1.5,2.1,2,4.1,2h11.2c2,0,4.1-0.5,4.1-2   v-3.7c0-0.8-0.2-1.2-0.5-1.6c0,0,0-0.1-0.1-0.1c0,0,0,0,0,0c-0.1-0.1-0.1-0.1-0.2-0.2l-0.3-0.3c-0.4-0.3-0.9-0.7-1.2-1   c0.3-0.1,0.7-0.3,1-0.4l0.2-0.1c4.2-1.7,7.7-3.9,9.3-6C39.2,74.2,38.7,72.1,38.2,71z M0.5,46.3h37.6c0,2.5,0,4.2,0,4.2   c0,19-17.6,29.8-18.8,30.5C18.2,80.4,0.5,69.6,0.5,50.6V46.3z M35.8,67.8c0.5,0.8,0.5,1.9,0,3c-0.1,0.2-0.2,0.4-0.3,0.6l-1.4-2   c-0.1-0.1-0.1-0.1-0.2-0.1c-0.1,0-0.2,0.1-0.2,0.2c-0.1,0.3-0.4,0.6-0.8,0.8c-0.4,0.2-0.9,0.2-1.3,0.1c0.8-1.1,1.6-2.3,2.4-3.6   c0.1,0,0.1,0,0.2,0c0,0,0,0,0,0C34.8,66.8,35.4,67.2,35.8,67.8z M23.7,86.7l0.2,0.2h-9.2l0.2-0.2c0.5-0.5,1-0.9,1-2.1V82   c0-2.6-2.2-3.6-4.7-4.7c-0.9-0.4-1.8-0.8-2.7-1.3c-0.8-0.5-2-1.2-3.1-2.1l2-2.9c5.4,6.9,11.7,10.6,11.8,10.6c0.1,0,0.2,0,0.2,0   c0.1-0.1,6.4-3.7,11.8-10.6l2,2.9c-1.1,0.9-2.2,1.7-3.1,2.1c-0.9,0.5-1.8,0.9-2.7,1.3c-2.5,1.2-4.7,2.2-4.7,4.7v2.6   C22.7,85.8,23.2,86.2,23.7,86.7z M5.1,73.5c-0.6-0.6-1.2-1.1-1.6-1.8c0.3-0.4,1-1.5,1.3-1.8c0.2,0.3,0.5,0.6,0.9,0.8   c0.4,0.2,0.9,0.2,1.4,0.1L5.1,73.5z M31.7,70.8c0.4,0.1,0.9,0.1,1.3-0.1c0.4-0.2,0.7-0.4,0.9-0.8c0.2,0.3,1,1.5,1.3,1.8   c-0.4,0.6-1,1.2-1.6,1.8L31.7,70.8z M0.5,31.6c0.4,0,37.2,0,37.6,0c0,0.3,0,8.8,0,14.3H0.5C0.5,40.4,0.5,31.9,0.5,31.6z M2.9,67.8   c0.3-0.6,0.9-1,1.5-1c0,0,0,0,0,0c0.1,0,0.1,0,0.2,0C5.4,68,6.2,69.2,7,70.3c-0.4,0.1-0.8,0.1-1.3-0.1c-0.4-0.2-0.7-0.5-0.8-0.8   c0-0.1-0.1-0.1-0.2-0.2c-0.1,0-0.2,0-0.2,0.1l-1.3,2c-0.1-0.2-0.2-0.4-0.3-0.6C2.4,69.7,2.4,68.6,2.9,67.8z M11.2,82.4L11,82.3   c-4.1-1.6-7.5-3.8-9.2-5.8c-1.8-2.3-1.5-4.1-1-5.2L1.4,70l0.7-1.6c0,0,0,0,0,0C2,69.1,2,69.9,2.5,71c0.8,2,3.7,4.1,5.8,5.4   c0.9,0.5,1.9,1,2.8,1.4c2.5,1.1,4.5,2.1,4.5,4.3v2.6c0,0.3,0,0.5-0.1,0.6c-0.1-0.3-0.2-0.6-0.4-0.8C14.2,83.6,12.8,83,11.2,82.4z    M10.4,85.2C10.4,85.2,10.4,85.2,10.4,85.2C10.5,85.1,10.5,85.1,10.4,85.2c0.1-0.2,0.2-0.3,0.4-0.4l0.3-0.3c0.5-0.4,1-0.8,1.4-1.2   c0.9,0.4,1.7,0.8,2.2,1.4c0.4,0.4,0.4,1.2,0.1,1.4l0,0c-0.1,0.1-0.1,0.1-0.2,0.2L14.1,87h-0.4c-1.8,0-3.1-0.6-3.3-1.3   C10.3,85.5,10.3,85.4,10.4,85.2z M28.6,86.1c0,0.1,0,0.2,0,0.3v3.7c0,1.2-2,1.6-3.6,1.6H13.7c-1.7,0-3.6-0.4-3.6-1.6v-3.7   c0-0.1,0-0.2,0-0.3c0.4,0.7,1.7,1.4,3.6,1.3h11.2l0,0C26.9,87.4,28.1,86.8,28.6,86.1z M27.5,84.6l0.3,0.3c0.1,0.1,0.2,0.2,0.3,0.3   c0,0,0,0,0,0c0,0,0,0,0,0c0.1,0.2,0.1,0.3,0,0.5C28,86.3,26.8,87,24.9,87c0,0,0,0,0,0l0,0h-0.4L24,86.4c-0.1-0.1-0.1-0.1-0.2-0.2   c0,0,0,0,0,0c-0.3-0.2-0.3-1,0.1-1.4c0.5-0.6,1.3-1,2.2-1.4C26.5,83.8,27.1,84.2,27.5,84.6z M36.8,76.4c-1.6,2-5,4.2-9.1,5.8   l-0.2,0.1c-1.6,0.6-3,1.2-3.9,2.2c-0.2,0.2-0.3,0.5-0.4,0.8c0-0.2-0.1-0.4-0.1-0.6V82c0-2.3,2-3.2,4.5-4.3c0.9-0.4,1.8-0.8,2.8-1.4   c2.2-1.2,5-3.4,5.8-5.4c0.4-1.1,0.4-1.9,0.3-2.5c0,0,0,0,0,0l0.7,1.6l0.6,1.2C38.4,72.4,38.6,74.2,36.8,76.4z"></path>
	<path id="Text_8_" class="st1" d="M7.1,76.8c0-0.1,0.1-0.2,0.1-0.2C7,76.4,6.7,76.2,6.4,76c0,0.1-0.1,0.2-0.1,0.3   c0.1,0.1,0.1,0.1,0.2,0.2c-0.3,0.7-0.6,1.3-0.9,1.9c-0.1,0-0.2-0.1-0.2-0.1c0,0.1-0.1,0.2-0.1,0.3c0.5,0.3,1,0.7,1.5,1   C6.8,79.2,7,79,7.1,78.8c0,0,0,0,0,0c-0.1-0.1-0.1-0.1-0.2-0.2c-0.1,0.1-0.3,0.3-0.4,0.4c-0.2-0.1-0.5-0.2-0.6-0.4   c0-0.2,0.7-1.5,0.9-1.9C6.9,76.7,7.1,76.8,7.1,76.8L7.1,76.8z M4.7,77c0.1-0.2,0.2-0.5,0.4-0.7c-0.1,0-0.1-0.1-0.2-0.2   c0,0.1-0.1,0.1-0.1,0.2c0,0-0.3-0.2-0.4-0.3c0.1-0.3,0.3-0.5,0.4-0.8c0.1,0.1,0.4,0.3,0.5,0.5c0,0.1-0.1,0.3-0.1,0.4   c0,0.1,0.2,0.1,0.2,0.2c0.1-0.2,0.2-0.5,0.3-0.7c-0.5-0.4-0.9-0.7-1.4-1.1c0,0.1-0.1,0.2-0.1,0.2c0.1,0.1,0.1,0.1,0.2,0.2   c-0.3,0.7-0.6,1.2-1,1.9c-0.1-0.1-0.1-0.1-0.2-0.2c0,0.1-0.1,0.2-0.1,0.2C3.6,77.3,4,77.6,4.5,78c0.1-0.2,0.3-0.4,0.4-0.6   c0,0,0,0,0,0c-0.1-0.1-0.1-0.1-0.2-0.2c0,0.1-0.3,0.4-0.3,0.4c-0.1,0-0.5-0.3-0.6-0.5c0-0.1,0.3-0.7,0.4-0.8   c0.1,0.1,0.3,0.2,0.4,0.3c0,0.1,0,0.2-0.1,0.2C4.6,76.9,4.7,76.9,4.7,77L4.7,77z M12.9,79.4c-0.7-0.4-1.4-0.7-2.1-1   c-0.1,0.2-0.2,0.4-0.3,0.7c0.1,0.1,0.2,0.1,0.3,0.2c0.1-0.1,0.2-0.2,0.3-0.4c0.1,0,0.3,0.1,0.5,0.2c-0.3,0.6-0.6,1.4-0.9,2   c-0.1,0-0.2-0.1-0.3-0.1c0,0.1-0.1,0.2-0.1,0.2c0.4,0.2,0.7,0.3,1.1,0.5c0-0.1,0.1-0.2,0.1-0.2c-0.1-0.1-0.2-0.1-0.3-0.1   c0.3-0.7,0.6-1.4,0.9-2c0.2,0.1,0.4,0.2,0.4,0.3c0,0.1-0.1,0.3-0.1,0.4c0,0,0.2,0.1,0.3,0.1C12.6,79.8,12.7,79.6,12.9,79.4   L12.9,79.4z M10.5,78.3c-0.3-0.1-0.6-0.3-0.9-0.4c0,0.1-0.1,0.2-0.1,0.2c0.1,0.1,0.2,0.1,0.3,0.2c-0.3,0.7-0.8,2.2-1.5,1.7   c-0.5-0.3-0.3-0.7,0-1.3c0.2-0.3,0.3-0.7,0.5-1c0.1,0,0.2,0.1,0.3,0.1c0-0.1,0.1-0.2,0.1-0.2c-0.3-0.2-0.6-0.3-1-0.5   c0,0.1-0.1,0.2-0.1,0.2c0.1,0,0.1,0.1,0.2,0.1C8.3,77.6,8,78,8,78.1c-0.3,0.7-0.6,1.2-0.3,1.7c0.1,0.1,0.2,0.2,0.3,0.3   c0.2,0.1,0.4,0.2,0.6,0.2c0.8,0.1,1.2-1,1.6-1.9c0.1,0,0.1,0.1,0.2,0.1C10.4,78.4,10.4,78.3,10.5,78.3L10.5,78.3z M3.8,74.3   c0.1,0,0.1,0.1,0.2,0.1c0-0.1,0.1-0.2,0.1-0.3c-0.2-0.2-0.5-0.4-0.7-0.7c0,0.1-0.1,0.2-0.1,0.3c0.1,0.1,0.2,0.2,0.2,0.2   c-0.2,0.2-1.1,1.2-1.1,1.2c0,0,0,0,0,0c0-0.1,0.3-1.9,0.3-2.1c0.1,0.1,0.2,0.2,0.2,0.3c0-0.1,0.1-0.2,0.1-0.2   c-0.2-0.3-0.5-0.6-0.7-0.9c-0.1,0.1-0.1,0.1-0.2,0.2c0,0.1,0.1,0.1,0.1,0.2c-0.1,0.2-0.4,2.6-0.4,2.9c0.1,0.1,0.1,0.2,0.2,0.3   C2.6,75.5,3.7,74.5,3.8,74.3L3.8,74.3z M28.3,79.7C28.3,79.7,28.3,79.7,28.3,79.7c0-0.4,0.1-0.8,0.1-1.2c0,0,0,0,0,0   c0.2,0.3,0.3,0.6,0.4,0.9C28.7,79.5,28.5,79.6,28.3,79.7L28.3,79.7z M30.4,79.4c0,0.1,0.1,0.3,0.1,0.4c0,0.1-0.6,0.4-0.8,0.4   c-0.1-0.3-0.2-0.5-0.4-0.8c0.1-0.1,0.6-0.3,0.6-0.3c0,0.1,0.1,0.1,0.1,0.2c0.1,0,0.2-0.1,0.3-0.1c-0.1-0.3-0.2-0.5-0.3-0.7   c-0.1,0-0.2,0.1-0.3,0.1c0,0.1,0,0.2,0.1,0.2c-0.1,0.1-0.5,0.3-0.6,0.4c-0.2-0.3-0.3-0.6-0.4-1c0.2-0.1,0.5-0.3,0.7-0.3   c0.1,0.1,0.2,0.2,0.3,0.3c0.1-0.1,0.2-0.1,0.2-0.1c0-0.1-0.3-0.5-0.3-0.6c-0.5,0.3-1.1,0.6-1.6,0.8c-0.1,0.9-0.2,1.9-0.2,2.8   c-0.1,0-0.1,0.1-0.2,0.1c0,0.1,0.1,0.2,0.1,0.2c0.3-0.1,0.6-0.3,0.9-0.4c0-0.1-0.1-0.2-0.1-0.2c-0.1,0-0.2,0.1-0.3,0.1   c0-0.3,0-0.7,0-1c0.2-0.1,0.5-0.2,0.7-0.3c0.1,0.2,0.2,0.6,0.4,0.8c-0.1,0.1-0.2,0.1-0.3,0.1c0,0.1,0.1,0.2,0.1,0.2   c0.6-0.3,1.2-0.6,1.8-0.9c-0.1-0.2-0.1-0.4-0.2-0.7C30.6,79.3,30.5,79.4,30.4,79.4L30.4,79.4z M32.4,76.2c0.1,0,0.1-0.1,0.2-0.1   c0-0.1-0.1-0.2-0.1-0.2c-0.3,0.2-0.5,0.4-0.8,0.5c0,0.1,0.1,0.2,0.1,0.2c0.1-0.1,0.2-0.1,0.3-0.2c0.1,0.4,0.2,1.5,0.2,1.8   c0,0.1,0,0.2,0,0.3c0,0,0,0,0,0c-0.1,0-0.3-0.3-0.3-0.3l-0.7-0.8c-0.1-0.1-0.2-0.2-0.3-0.4c0.1-0.1,0.2-0.1,0.3-0.2   c0-0.1-0.1-0.2-0.1-0.3c-0.3,0.2-0.7,0.4-1,0.6c0,0.1,0.1,0.2,0.1,0.3c0.1,0,0.1-0.1,0.2-0.1c0.1,0.1,0.3,0.3,0.4,0.5   c0.3,0.3,0.6,0.6,0.9,1c0.1,0.1,0.3,0.3,0.4,0.4c0.1-0.1,0.2-0.1,0.3-0.2c0-0.6-0.1-1.3-0.1-2C32.5,76.8,32.5,76.4,32.4,76.2   L32.4,76.2z M24.8,89.5c0-0.4,0-0.7,0-1.1c0.1,0,0.3,0,0.4,0c0.3,0.1,0.5,0.5,0.2,0.8C25.3,89.5,25.1,89.5,24.8,89.5L24.8,89.5z    M26,90.4c-0.1-0.2-0.3-0.6-0.5-0.7c0,0,0,0,0,0c0.5-0.1,0.8-0.9,0.3-1.2c-0.4-0.3-1.1-0.2-1.8-0.2c0,0.1,0,0.2,0,0.3v0   c0.1,0,0.2,0,0.3,0v2.1c-0.1,0-0.2,0-0.3,0c0,0.1,0,0.2,0,0.3v0h1c0-0.1,0-0.2,0-0.3c-0.1,0-0.2,0-0.3,0c0-0.3,0-0.5,0-0.8   c0.1,0,0.2,0,0.3,0c0.3,0.1,0.4,0.8,0.6,1.1c0,0,0.6,0,0.7,0l0-0.3c-0.1,0-0.2,0-0.3,0C26.1,90.6,26.1,90.5,26,90.4L26,90.4z    M19.8,90.3c-0.1,0.2-0.2,0.3-0.5,0.4c-0.1,0-0.3,0-0.3-0.1c0,0,0-0.2,0-0.2c0-0.1,0-0.7,0-0.7C19.4,89.6,19.9,89.8,19.8,90.3   L19.8,90.3z M18.9,88.5c0.3,0,0.5,0,0.7,0.2c0.1,0.1,0.1,0.2,0.1,0.3c-0.1,0.3-0.3,0.5-0.7,0.4C18.9,89.1,18.9,88.8,18.9,88.5   L18.9,88.5z M19.7,89.5L19.7,89.5L19.7,89.5c0.5-0.2,0.7-0.8,0.2-1.1c-0.4-0.2-1.1-0.1-1.7-0.1v0.3c0.1,0,0.2,0,0.3,0v2.2   c-0.1,0-0.2,0-0.3,0c0,0.1,0,0.2,0,0.2c0.6,0,1.4,0.1,1.8-0.2c0.3-0.2,0.5-0.6,0.3-1C20.1,89.6,19.9,89.6,19.7,89.5L19.7,89.5z    M16.2,89.5c0-0.4,0-0.7,0-1.1c0.1,0,0.3,0,0.4,0c0.3,0.1,0.5,0.5,0.2,0.8C16.7,89.5,16.5,89.5,16.2,89.5L16.2,89.5z M17.4,90.4   c-0.1-0.2-0.3-0.6-0.5-0.7c0,0,0,0,0,0c0.5-0.1,0.8-0.9,0.3-1.2c-0.4-0.3-1.1-0.2-1.8-0.2c0,0.1,0,0.2,0,0.3v0c0.1,0,0.2,0,0.3,0   v2.1c-0.1,0-0.2,0-0.3,0c0,0.1,0,0.2,0,0.3v0h1c0-0.1,0-0.2,0-0.3c-0.1,0-0.2,0-0.3,0c0-0.3,0-0.5,0-0.8c0.1,0,0.2,0,0.3,0   c0.3,0.1,0.4,0.8,0.6,1.1c0,0,0.6,0,0.7,0l0-0.3c-0.1,0-0.2,0-0.3,0C17.5,90.6,17.4,90.5,17.4,90.4L17.4,90.4z M13.2,89.9   c0.1-0.4,0.2-0.7,0.4-1.1c0,0,0,0,0,0l0.4,1.1H13.2L13.2,89.9z M13.9,88.2c-0.1,0-0.3,0-0.4,0c-0.3,0.8-0.6,1.6-0.9,2.4   c-0.1,0-0.2,0-0.2,0v0.3h0.9v-0.3c-0.1,0-0.2,0-0.3,0c0.1-0.2,0.1-0.3,0.1-0.5c0.3,0,0.6,0,0.9,0c0.1,0.1,0.2,0.3,0.2,0.5   c-0.1,0-0.2,0-0.3,0v0.3h1v-0.3c-0.1,0-0.2,0-0.2,0C14.5,89.8,14.2,89,13.9,88.2L13.9,88.2z M34.9,77.1c-0.6,0.5-1.2-0.3-1.3-0.9   c-0.1-0.3-0.1-0.7,0.1-0.9c0.1-0.1,0.1-0.1,0.2-0.2C34,75,34.1,75,34.2,75C34.9,75,35.6,76.5,34.9,77.1L34.9,77.1z M35.1,74.9   c-0.4-0.3-0.8-0.4-1.4,0c-0.1,0.1-0.2,0.2-0.3,0.2c-0.2,0.3-0.4,0.6-0.4,1c0,0.1,0,0.3,0,0.4c0,0.2,0.1,0.4,0.2,0.6   c0.4,0.5,0.8,0.7,1.4,0.4C35.8,77.1,35.9,75.6,35.1,74.9L35.1,74.9z M22.3,90.7c-0.7,0.1-1-0.8-0.8-1.5c0.1-0.3,0.2-0.6,0.5-0.7   c0.1,0,0.1,0,0.2,0c0.2,0,0.3,0,0.4,0.1C23.2,88.9,23.1,90.5,22.3,90.7L22.3,90.7z M22.1,88.2c-0.1,0-0.2,0-0.3,0.1   c-0.3,0.1-0.6,0.3-0.7,0.6c-0.1,0.1-0.1,0.3-0.1,0.4c0,0.2,0,0.4,0,0.6c0.1,0.6,0.5,1,1.1,1.1c1.1,0.2,1.8-1,1.4-2   C23.2,88.4,22.8,88.2,22.1,88.2L22.1,88.2z"></path>
	<path class="st0" d="M0.4,46.1l37.9,0c0,2.5,0,4.2,0,4.2c0,19-17.8,30.2-19,30.9c-1.2-0.7-19-11.6-19-30.6L0.4,46.1z M26.5,62.3   c-3.5-4.2-8.4-2.1-8.5-2.1c-0.9,0.2-1.7,0.6-2.3,0.9l-0.5,0.2c0,0-0.6,0.1-0.6,0.1l-1,0.1c-0.5,0.1-1.3,0.5-2.1,1l-0.6,0.3   c-1.1,0.6-1.3,1-1.4,1.2c-0.2,0.1-0.4,0.3-0.4,0.5c0,0,0,0.1,0,0.1c0,0.2,0.1,0.3,0.2,0.5c0.2,0.6,0.7,0.5,0.8,0.5c0,0,0.2,0,0.2,0   c0.3-0.1,0.5,0,0.7,0.3l0,0.1c0,0.1-0.2,0.3-0.3,0.3c-0.1,0-0.1,0.1-0.1,0.1c0.1,0.5,0.9,0.3,1.2,0.3l0.1,0l0.3,0   c0.4-0.1,1.2-0.1,1.5,0c0.2,0,0.5,0.2,0.7,0.3c0,0.1-0.1,0.3-0.1,0.3l-0.3,0.1c-0.5,0.1-1.2,0.1-1.5,0.7c-0.2,0.6-0.1,1.1,0,1.2   l0.2,0.2c0.1,0.1,0.4-0.2,0.6-0.3c0.5-0.3,0.4-0.4,0.4-0.5c0-0.2,0.1-0.3,0.2-0.3c0,0,0.1,0.1,0.1,0.1c0.3,0.1,1.1,0.3,1.5,0.1   c0,0.1-0.2,0.6-0.4,0.7c-0.2,0.1-0.5,0.1-0.7,0.1c-0.2,0-0.4,0-0.5,0.1c-0.2,0.1-0.5,0.6-0.5,0.7c0,0.1,0,0.1,0,0.2l0,0.1   c0,0,0.1,0.1,0.1,0.1l1.4,0l0.2,0c0.4,0,0.9,0,1.2-0.3l0.2-0.2l0.7-0.6l0.7-0.6l0.3-0.3c0.1-0.1,0.1-0.2,0.2-0.3   c0.3,0.2,1,0.5,1.3,0.7c-0.1,0-0.5,0-0.9,0.2c-0.4,0.2-0.6,0.4-1,0.8c0,0,0,0.1,0,0.1c0,0,0,0,0,0.1c0.1,0.2,0.7,0.5,0.9,0.6   c0.2,0,0.4,0,0.7-0.1l0.4-0.1c0.1,0,1.9-0.1,3.1,0L22,71.2c-0.6,0.4-1.6,1-2.7,1.9c-1.1,0.9-2,2.2-2,3c0,0.1-0.1,0.3-0.1,0.4   c0.1,0.2,0.2,0.5,0.7,0.5c2.3,0.2,3.6-1.2,4.7-2.3l0.3-0.3c0.8-0.8,1.3-1.8,1.7-2.4c0.2-0.3,0.3-0.5,0.4-0.6   c1.1-0.7,2.4-2.7,2.7-4.8C27.9,65,27.5,63.5,26.5,62.3z M35.3,49h-0.8l-0.8-0.5h0c0,0-0.1,0-0.1,0h-1.1c-0.2,0-0.4-0.1-0.6-0.3   c-0.4-0.3-0.9-0.6-1.8-0.6c-1,0-1.5,0.4-1.8,0.7c-0.2-0.3-0.8-0.7-1.8-0.7c-0.9,0-1.4,0.4-1.8,0.6c-0.2,0.2-0.4,0.3-0.6,0.3H23   c-0.1,0-0.1,0-0.1,0.1L22,49h-0.8c-0.1,0-0.2,0.1-0.2,0.2v7.4c0,0.1,0.1,0.2,0.2,0.2c0,0,5.6,0,5.8,0c0.1,0.1,0.4,0.4,0.9,0.4   c0.2,0,0.6,0,0.8,0c0.5-0.1,0.7-0.3,0.9-0.4c0.2,0,5.8,0,5.8,0c0.1,0,0.2-0.1,0.2-0.2v-7.4C35.5,49.1,35.4,49,35.3,49z M17.3,48.9   h-0.8l-0.8-0.5c0,0-0.1-0.1-0.1-0.1h-1.1c-0.2,0-0.4-0.1-0.6-0.3c-0.4-0.3-0.9-0.6-1.8-0.6c-1,0-1.5,0.4-1.8,0.7   c-0.2-0.3-0.8-0.7-1.8-0.7c-0.9,0-1.4,0.4-1.8,0.6c-0.2,0.2-0.4,0.3-0.6,0.3H5c-0.1,0-0.1,0-0.2,0.1l-0.8,0.5H3.2   C3.1,48.9,3,49,3,49.1v7.4c0,0.1,0.1,0.2,0.2,0.2c0,0,5.6,0,5.7,0c0.1,0.1,0.4,0.4,0.9,0.4c0.2,0,0.6,0,0.8,0   c0.5-0.1,0.7-0.3,0.9-0.4c0.2,0,5.8,0,5.8,0c0.1,0,0.2-0.1,0.2-0.2v-7.4C17.5,49,17.4,48.9,17.3,48.9z"></path>
	<g id="Beaver_8_">
		<g>
			<path class="st0" d="M26.6,62.2c-3.5-4.3-8.6-2.1-8.6-2.1c-1,0.2-1.8,0.6-2.3,0.9l-0.5,0.2l-0.6,0.1l-1.1,0.1     c-0.6,0.1-1.3,0.5-2.2,1l-0.6,0.4c-1.1,0.6-1.3,1-1.4,1.2c-0.2,0.1-0.4,0.3-0.4,0.5c0,0,0,0.1,0,0.1c0,0.2,0.1,0.4,0.2,0.5     c0.2,0.6,0.8,0.7,0.8,0.7c0,0,0.2,0,0.2,0c0.3-0.1,0.5-0.1,0.6,0.2l0,0.1c-0.1,0.1-0.3,0.2-0.4,0.3c-0.1,0-0.1,0.1-0.1,0.2     c0.2,0.5,0.9,0.4,1.2,0.4l0.1,0l0.3-0.1c0.4-0.1,1.2-0.2,1.5-0.1c0.2,0.1,0.5,0.2,0.8,0.3c-0.1,0.1-0.1,0.2-0.2,0.2l-0.3,0.1     c-0.5,0.1-1.2,0.2-1.4,0.8c-0.2,0.6-0.1,1.1,0,1.2l0.2,0.3c0.1,0.1,0.4-0.1,0.6-0.2c0.5-0.3,0.5-0.5,0.5-0.6     c0-0.2,0.1-0.3,0.2-0.3c0,0,0.1,0,0.1,0c0.3,0.1,0.9,0.4,1.3,0.2c0,0.2-0.1,0.4-0.4,0.5c-0.2,0.1-0.5,0.1-0.7,0.1     c-0.2,0-0.4,0-0.5,0.1c-0.2,0.2-0.6,0.8-0.6,0.9c0,0,0,0.1,0,0.2l0,0.1c0,0,0.1,0.1,0.1,0.1l1.5,0l0.2,0c0.4,0,1,0,1.2-0.2     l0.2-0.2l0.8-0.6l0.8-0.6l0.3-0.3c0.1-0.1,0.1-0.2,0.2-0.3c0.3,0.2,0.6,0.4,0.9,0.5c-0.1,0-0.4,0-0.7,0.2c-0.4,0.2-0.8,0.5-1,1     c0,0,0,0.1,0,0.1c0,0,0,0.1,0,0.1c0.1,0.2,0.7,0.5,0.9,0.6c0.2,0,0.4,0,0.7-0.1l0.4-0.1c0.1,0,1.7,0,2.9,0l-0.7,0.5     c-0.6,0.4-1.6,1.1-2.7,2c-1.1,0.9-2,2.3-2,3.2c0,0.1,0,0.2,0,0.3c0.1,0.2,0.2,0.5,0.7,0.6c2.3,0.2,3.7-1.2,4.8-2.4l0.3-0.3     c0.8-0.8,1.3-1.8,1.7-2.4c0.2-0.3,0.3-0.6,0.4-0.6c1.1-0.8,2.4-2.7,2.7-4.9C28,64.9,27.6,63.4,26.6,62.2z M15.2,68.5     c-0.3,0.3-0.9,0-1.1-0.1l-0.2-0.1c-0.2,0-0.4,0.2-0.5,0.5c0,0.1-0.1,0.1-0.2,0.2c0,0-0.1-0.1-0.1-0.3c0-0.2,0-0.5-0.1-0.5     c-0.1,0-0.4,0.5-0.2,0.9c-0.1,0-0.2,0.1-0.2,0.1c0-0.1-0.2-0.3-0.2-0.6c0-0.2,0-0.3,0.1-0.5c0.2-0.5,0.8-0.6,1.2-0.6l0.4-0.1     c0.2-0.1,0.3-0.2,0.4-0.3c0.2,0.1,0.3,0.3,0.4,0.3C14.9,67.7,15.1,68.2,15.2,68.5C15.2,68.5,15.2,68.5,15.2,68.5z M19.5,70.5     c0,0-0.5,0.1-0.5,0.1c-0.2,0-0.4,0.1-0.5,0.1c0,0,0,0-0.1,0c0.1-0.1,0.2-0.3,0.4-0.4c0.3-0.2,0.8-0.4,0.7-0.4     c-0.2-0.1-0.5,0-0.8,0.1c-0.3,0.1-0.5,0.4-0.6,0.6c-0.1-0.1-0.2-0.1-0.2-0.2c0.2-0.4,0.5-0.7,0.8-0.8c0.5-0.2,0.6-0.1,0.6-0.1     c0.2,0,1.5,0.3,1.8,0.3c0,0,0,0,0,0c0.1,0,0.1,0.1,0.2,0.1c0.6,0.3,1.3,0.4,1.6,0.4c0,0.1-0.1,0.2-0.1,0.4     C22.1,70.4,19.7,70.4,19.5,70.5z M27.5,66.6c-0.3,2-1.5,4-2.6,4.7c-0.1,0.1-0.2,0.3-0.5,0.7c-0.4,0.6-0.9,1.6-1.7,2.4l-0.3,0.3     c-1.1,1.2-2.4,2.6-4.5,2.3c-0.2,0-0.4-0.1-0.5-0.3c-0.2-0.6,0.5-2.1,1.8-3.2c1.1-0.9,2-1.5,2.6-1.9l0.8-0.6     c0.1-0.1,0.1-0.1,0.2-0.2c0,0,0,0,0-0.1c0.2-0.3,0.2-0.7,0.2-0.7c0,0,0-0.1,0-0.1c0,0-0.1,0-0.1,0c0,0-0.9,0-1.6-0.4     c-0.5-0.3-0.9-0.7-1.2-1.4c-0.3-1,0.2-1.6,0.7-2.3c0.4-0.5,0.7-0.9,0.7-1.5c0-0.1-0.1-0.1-0.2-0.1c-0.1,0-0.1,0.1-0.1,0.2     c0,0,0,0,0,0c0,0,0,0.1,0,0.1c0,0.4-0.3,0.7-0.6,1.1c-0.4,0.5-0.8,1.1-0.8,1.8c0,0.2,0,0.5,0.1,0.7c0.2,0.4,0.4,0.8,0.6,1.1     c-0.5-0.1-1.4-0.4-2-0.9c0,0-0.1,0-0.1,0c0.1-0.6,0-1.6-0.1-1.9c0-0.1-0.1-0.1-0.2-0.1c-0.1,0-0.1,0.1-0.1,0.2     c0.1,0.9,0.1,2-0.1,2.2c0,0-0.3,0.3-0.3,0.3l-0.8,0.6l-0.8,0.6l-0.2,0.2c-0.2,0.2-0.7,0.1-1,0.1l-0.2,0c0,0-0.2,0-0.5,0     c0.1-0.2,0.1-0.3,0.1-0.4c-0.1-0.1-0.4,0.2-0.5,0.4c-0.1,0-0.2,0-0.3,0c0.2-0.3,0.4-0.6,0.5-0.6l0.3,0c0.3,0,0.6,0,0.8-0.1     c0.5-0.2,0.5-0.7,0.5-0.8c0-0.2-0.3-1.2-0.5-1.4c-0.2-0.3-1-0.9-1.6-1c-0.4-0.1-1.2,0-1.7,0.1l-0.3,0c0,0-0.1,0-0.1,0     c-0.2,0-0.6,0.1-0.8-0.1c0.1-0.1,0.3-0.2,0.4-0.3l0-0.3c-0.2-0.6-0.8-0.5-1-0.4l-0.1,0c0,0-0.3,0-0.5-0.4l0.3-0.2     c0.1,0,0.1-0.1,0.1-0.2c0-0.1-0.1-0.1-0.2-0.1l-0.3,0.2c0-0.1,0-0.1,0-0.2c0-0.1,0.1-0.2,0.3-0.3c0,0,0.1-0.1,0.1-0.1     c0,0,0.2-0.5,1.3-1.1l0.6-0.4c0.9-0.5,1.6-0.9,2.1-1l1.7-0.2l0.5-0.3c0.5-0.3,1.3-0.7,2.2-0.9c0.1,0,4.9-2.1,8.3,2     C27.3,63.6,27.7,65,27.5,66.6z"></path>
			<path class="st0" d="M13.4,62.3c-0.2-0.1-0.3-0.1-0.5,0c-0.3,0.1-0.4,0.4-0.2,0.5c0.2,0.1,0.3-0.1,0.3-0.1c0,0,0.1,0,0.2,0     c0.1,0,0.1,0.1,0.1,0.1c0,0,0,0.2,0.1,0.2C13.6,63.1,13.9,62.6,13.4,62.3z"></path>
			<path class="st0" d="M10.8,64.3c-0.2,0.4,0.3,1,0.5,0.9c0.2-0.1-0.3-0.5-0.1-0.7c0.1-0.3,1.1-0.7,1.1-0.8     C12.2,63.5,11,63.9,10.8,64.3z"></path>
			<path class="st0" d="M22.1,72.6c-0.4,0-0.8-0.1-0.9,0.1c0,0.2,0.4,0.3,0.9,0.3c0.3,0,0.9-0.1,0.8-0.2     C22.9,72.6,22.4,72.6,22.1,72.6z"></path>
			<path class="st0" d="M21,73.6c-0.5,0-1-0.1-1.1,0.1c0,0.2,0.5,0.3,1.1,0.3c0.4,0,1-0.1,1-0.2C22,73.6,21.4,73.6,21,73.6z"></path>
			<path class="st0" d="M20.1,74.6c-0.5,0-1-0.1-1,0.1c0,0.2,0.5,0.2,1,0.3c0.4,0,1-0.1,0.9-0.2C21,74.6,20.4,74.6,20.1,74.6z"></path>
			<path class="st0" d="M19.2,75.7c-0.4,0-0.7-0.1-0.7,0.1c0,0.2,0.4,0.2,0.7,0.2c0.3,0,0.7,0,0.7-0.2     C19.9,75.6,19.5,75.7,19.2,75.7z"></path>
			<path class="st0" d="M11,63.8l0.1,0c0.1,0,0.2-0.2,0.1-0.3c0-0.1-0.2-0.2-0.3-0.1l-0.1,0c-0.1,0-0.2,0.2-0.1,0.3     C10.8,63.8,10.9,63.8,11,63.8z"></path>
			<path class="st0" d="M17.9,61.4c0-0.1-0.1-0.1-0.2-0.1l-1.2,0.4c-0.1,0-0.1,0.2-0.1,0.3c0.1,0.1,0.2,0.2,0.3,0.2l1.1-0.6     C17.9,61.6,17.9,61.5,17.9,61.4z"></path>
			<path class="st0" d="M18,62.7c0.1,0,0.1-0.1,0.1-0.2c0-0.1-0.1-0.1-0.2-0.1L17,62.6c-0.1,0-0.2,0.2-0.2,0.3     c0,0.1,0.2,0.2,0.3,0.2L18,62.7z"></path>
			<path class="st0" d="M18,63.6l-0.7,0c-0.1,0-0.2,0.1-0.2,0.2c0,0.1,0.1,0.2,0.2,0.2l0.8-0.2c0.1,0,0.1-0.1,0.1-0.2     C18.1,63.6,18,63.6,18,63.6z"></path>
			<path class="st0" d="M17.8,64.7l-0.6-0.1c-0.1,0-0.2,0.1-0.2,0.2c0,0.1,0.1,0.2,0.2,0.2l0.6,0c0.1,0,0.1-0.1,0.1-0.1     C17.9,64.7,17.9,64.7,17.8,64.7z"></path>
			<path class="st0" d="M22.9,60.8c-0.1,0-0.2,0-0.3,0.2c0,0.1,0,0.2,0.2,0.3c0,0,0.6,0.2,1.1,0.4c0.1,0,0.2,0,0.2-0.1     c0-0.1,0-0.2-0.1-0.2C23.5,61,22.9,60.8,22.9,60.8z"></path>
			<path class="st0" d="M23.1,61.8c-0.1,0-0.2,0-0.2,0.1c0,0.1,0,0.2,0.1,0.2c0,0,0.5,0.1,0.9,0.3c0.1,0,0.2,0,0.2-0.1     c0-0.1,0-0.2-0.1-0.2C23.6,62,23.2,61.8,23.1,61.8z"></path>
			<path class="st0" d="M23.2,62.8c-0.1,0-0.2,0-0.2,0.1c0,0.1,0,0.2,0.1,0.2c0,0,0.4,0.1,0.6,0.2c0.1,0,0.2,0,0.2-0.1     c0-0.1,0-0.2-0.1-0.2C23.4,62.8,23.3,62.8,23.2,62.8z"></path>
			<path class="st0" d="M23.1,63.7c-0.1,0-0.2,0-0.2,0.1c0,0.1,0,0.2,0.1,0.2c0,0,0.3,0.1,0.4,0.1c0.1,0,0.1,0,0.2-0.1     c0-0.1,0-0.1-0.1-0.2C23.4,63.7,23.2,63.7,23.1,63.7z"></path>
			<path class="st0" d="M26.1,63.1c-0.4-0.4-0.7-0.6-0.7-0.6c-0.1-0.1-0.2,0-0.3,0.1c-0.1,0.1,0,0.2,0.1,0.3c0,0,0.3,0.1,0.7,0.5     c0.1,0.1,0.2,0.1,0.3,0C26.2,63.3,26.2,63.2,26.1,63.1z"></path>
			<path class="st0" d="M25.2,63.5c-0.1,0-0.2,0-0.3,0.1c-0.1,0.1,0,0.2,0.1,0.3c0,0,0.2,0,0.5,0.3c0.1,0.1,0.2,0.1,0.2,0     c0.1-0.1,0.1-0.2,0-0.2C25.3,63.5,25.2,63.5,25.2,63.5z"></path>
			<path class="st0" d="M24.9,64.4c-0.1,0-0.2,0-0.2,0.1c0,0.1,0,0.2,0.1,0.2c0,0,0.2,0.1,0.3,0.2c0.1,0,0.1,0,0.2,0     c0.1-0.1,0.1-0.2,0-0.2C25.2,64.6,25,64.4,24.9,64.4z"></path>
			<path class="st0" d="M24.6,65c-0.1,0-0.2,0-0.2,0c0,0.1,0,0.2,0,0.2c0,0,0.1,0,0.2,0.1c0.1,0,0.1,0.1,0.2,0c0.1,0,0.1-0.1,0-0.2     C24.7,65.1,24.6,65.1,24.6,65z"></path>
			<path class="st0" d="M26.7,65.2c0,0.1,0.1,0.1,0.2,0.1c0.1,0,0.1-0.1,0-0.2c0-0.1-0.1-0.2-0.2-0.3c-0.1-0.1-0.2-0.1-0.2,0     c-0.1,0.1-0.1,0.2,0,0.2C26.5,65,26.6,65.1,26.7,65.2z"></path>
			<path class="st0" d="M26.2,65.4c-0.1,0-0.1-0.1-0.2,0c-0.1,0.1-0.1,0.2,0,0.2c0.1,0.1,0.1,0.1,0.1,0.1c0.1,0.1,0.1,0.1,0.2,0     c0.1,0,0.1-0.1,0-0.2C26.3,65.5,26.3,65.4,26.2,65.4z"></path>
		</g>
	</g>
	<g id="Right_Book_8_">
		<g>
			<path class="st0" d="M35.5,48.8h-0.9l-0.8-0.6l0,0c0,0-0.1,0-0.1,0h-1.1c-0.2,0-0.4-0.1-0.6-0.3c-0.4-0.3-0.9-0.7-1.8-0.7     c-1.1,0-1.6,0.4-1.8,0.7c-0.3-0.3-0.8-0.7-1.8-0.7c-0.9,0-1.4,0.4-1.8,0.7c-0.2,0.2-0.4,0.3-0.6,0.3h-1.1c-0.1,0-0.1,0-0.1,0.1     l-0.8,0.5H21c-0.1,0-0.2,0.1-0.2,0.2v7.7c0,0.1,0.1,0.2,0.2,0.2c0,0,5.7,0,5.9,0c0.1,0.1,0.4,0.4,0.9,0.5c0.2,0,0.6,0,0.8,0     c0.5-0.1,0.8-0.3,0.9-0.5c0.2,0,5.9,0,5.9,0c0.1,0,0.2-0.1,0.2-0.2V49C35.7,48.9,35.6,48.8,35.5,48.8z M28.5,48.4     c0,0,0.2-0.7,1.6-0.7c0.8,0,1.2,0.3,1.6,0.6c0.3,0.2,0.5,0.4,0.9,0.4c0,0,0.6,0,0.9,0c0,0.4,0,5.8,0,6.2c-0.3,0-0.9,0-0.9,0     c-0.3,0-0.6-0.1-1-0.3c-0.5-0.2-1-0.4-1.6-0.4c-0.7,0-1.2,0.4-1.5,0.6C28.5,54.2,28.5,48.4,28.5,48.4z M23.1,48.7     c0.3,0,0.9,0,0.9,0c0.4,0,0.6-0.2,0.9-0.4c0.4-0.3,0.8-0.6,1.6-0.6c1.4,0,1.6,0.8,1.6,0.8c0,0,0,5.7,0,6.3     c-0.3-0.2-0.8-0.6-1.5-0.6c-0.6,0-1.1,0.2-1.6,0.4c-0.4,0.2-0.7,0.3-1,0.3c0,0-0.6,0-0.9,0C23.1,54.5,23.1,49.1,23.1,48.7z      M22.1,49.2c0.1-0.1,0.3-0.2,0.5-0.3v6.3c0,0.1,0.1,0.2,0.2,0.2H24c0.4,0,0.8-0.2,1.2-0.3c0.4-0.2,0.9-0.4,1.4-0.4     c0.7,0,1.3,0.6,1.3,0.6c0,0,0.1,0.1,0.2,0.1l0.2,0l0,0h0l0.2,0c0.1,0,0.1,0,0.2-0.1c0,0,0.6-0.6,1.3-0.6c0.5,0,1,0.2,1.4,0.4     c0.4,0.2,0.8,0.3,1.2,0.3h1.1c0.1,0,0.2-0.1,0.2-0.2v-6.3c0.2,0.1,0.4,0.3,0.5,0.3c0,0.2,0,6,0,6.4c-0.4,0-5,0-5,0     c-0.1,0-0.1,0-0.2,0.1c0,0-0.3,0.3-0.8,0.4l-0.2,0c-0.5-0.1-0.8-0.4-0.8-0.4c0,0-0.1-0.1-0.2-0.1c0,0-4.6,0-5,0     C22.1,55.1,22.1,49.4,22.1,49.2z M35.2,56.5c-0.4,0-5.8,0-5.8,0c-0.1,0-0.1,0-0.2,0.1c0,0-0.3,0.3-0.7,0.4c-0.1,0-0.5,0-0.7,0     c-0.5-0.1-0.7-0.4-0.7-0.4c0,0-0.1-0.1-0.2-0.1c0,0-5.4,0-5.8,0c0-0.4,0-6.8,0-7.2c0.1,0,0.3,0,0.5,0v6.5c0,0.1,0.1,0.2,0.2,0.2     c0,0,5,0,5.1,0c0.1,0.1,0.5,0.4,1.1,0.5l0.3,0c0.5-0.1,0.9-0.3,1-0.5c0.2,0,5.1,0,5.1,0c0.1,0,0.2-0.1,0.2-0.2v-6.5     c0.1,0,0.3,0,0.5,0C35.2,49.7,35.2,56.1,35.2,56.5z"></path>
			<path class="st0" d="M24,49.8c0.1,0,0.5,0,1-0.3l0.4-0.2l0.7-0.3c0.4-0.1,0.8-0.1,1,0C27,49,27,49,27,48.9c0-0.1,0.1-0.1,0.1-0.1     c0,0-0.5-0.1-1,0l-0.7,0.3L25,49.3c-0.5,0.2-0.8,0.2-0.9,0.2c-0.1,0-0.1,0.1-0.1,0.1C24,49.7,24,49.8,24,49.8z"></path>
			<path class="st0" d="M24.1,51.1c0.1,0,0.5,0,1-0.3l0.4-0.2l0.7-0.3c0.4-0.1,0.8-0.1,1,0c0.1,0,0.1,0,0.1-0.1c0-0.1,0-0.1-0.1-0.1     c0,0-0.5-0.1-1,0l-0.7,0.3L25,50.7c-0.5,0.2-0.8,0.2-0.9,0.2c-0.1,0-0.1,0-0.1,0.1C24,51.1,24,51.1,24.1,51.1z"></path>
			<path class="st0" d="M24,52.4c0.1,0,0.5,0,1-0.3l0.4-0.2l0.7-0.3c0.4-0.1,0.8-0.1,1,0c0.1,0,0.1,0,0.1-0.1c0,0,0-0.1-0.1-0.1     c0,0-0.5-0.1-1,0l-0.7,0.3L25,52c-0.5,0.2-0.8,0.2-0.9,0.2c-0.1,0-0.1,0-0.1,0.1C24,52.4,24,52.4,24,52.4z"></path>
			<path class="st0" d="M25,53.5l0.4-0.2l0.7-0.3c0.4-0.1,0.8-0.1,1,0C27,53,27,52.9,27,52.9c0-0.1,0.1-0.1,0.1-0.1c0,0-0.5-0.1-1,0     l-0.7,0.3L25,53.3c-0.5,0.2-0.8,0.2-0.9,0.2c-0.1,0-0.1,0.1-0.1,0.1c0,0.1,0,0.1,0.1,0.1C24.2,53.7,24.6,53.7,25,53.5z"></path>
			<path class="st0" d="M29.4,49c0.1,0,0.6-0.1,1,0l0.7,0.3l0.4,0.2c0.5,0.2,0.9,0.3,1,0.3c0.1,0,0.1,0,0.1-0.1c0,0,0-0.1-0.1-0.1     c-0.1,0-0.5,0-0.9-0.2l-0.4-0.2l-0.7-0.3c-0.5-0.1-1,0-1,0c-0.1,0-0.1,0.1-0.1,0.1C29.3,49,29.3,49.1,29.4,49z"></path>
			<path class="st0" d="M29.4,50.4c0.1,0,0.6-0.1,1,0l0.7,0.3l0.4,0.2c0.5,0.2,0.9,0.2,1,0.3c0.1,0,0.1,0,0.1-0.1     c0-0.1,0-0.1-0.1-0.1c-0.1,0-0.5,0-0.9-0.2l-0.4-0.2l-0.7-0.3c-0.5-0.1-1,0-1,0c-0.1,0-0.1,0.1-0.1,0.1     C29.3,50.3,29.3,50.4,29.4,50.4z"></path>
			<path class="st0" d="M29.4,51.7c0.1,0,0.6-0.1,1,0L31,52l0.4,0.2c0.5,0.2,0.9,0.2,1,0.3c0.1,0,0.1,0,0.1-0.1c0-0.1,0-0.1-0.1-0.1     c-0.1,0-0.5,0-0.9-0.2l-0.4-0.2l-0.7-0.3c-0.4-0.1-0.9-0.1-1,0c-0.1,0-0.1,0.1-0.1,0.1C29.3,51.7,29.3,51.7,29.4,51.7z"></path>
			<path class="st0" d="M31,53.3l0.4,0.2c0.5,0.2,0.9,0.2,1,0.3c0.1,0,0.1,0,0.1-0.1c0-0.1,0-0.1-0.1-0.1c-0.1,0-0.5,0-0.9-0.2     l-0.4-0.2l-0.7-0.3c-0.4-0.1-0.9-0.1-1,0c-0.1,0-0.1,0.1-0.1,0.1c0,0.1,0.1,0.1,0.1,0.1c0.1,0,0.6-0.1,1,0L31,53.3z"></path>
		</g>
	</g>
	<g id="Left_Book_7_">
		<g>
			<path class="st0" d="M6.1,49.8c0.1,0,0.5,0,1-0.3l0.4-0.2l0.7-0.3C8.6,49,9,49,9.1,49c-0.1,0-0.1-0.1-0.1-0.1     c0-0.1,0.1-0.1,0.1-0.1c0,0-0.5-0.1-1,0l-0.7,0.3l-0.4,0.2c-0.5,0.2-0.8,0.2-0.9,0.2c-0.1,0-0.1,0.1-0.1,0.1     C6,49.7,6.1,49.8,6.1,49.8z"></path>
			<path class="st0" d="M6.1,51.1c0.1,0,0.5,0,1-0.3l0.4-0.2l0.7-0.3c0.4-0.1,0.8-0.1,1,0c0.1,0,0.1,0,0.1-0.1c0-0.1,0-0.1-0.1-0.1     c0,0-0.5-0.1-1,0l-0.7,0.3l-0.4,0.2c-0.5,0.2-0.8,0.2-0.9,0.2c-0.1,0-0.1,0-0.1,0.1C6,51.1,6.1,51.1,6.1,51.1z"></path>
			<path class="st0" d="M6.1,52.4c0.1,0,0.5,0,1-0.3L7.5,52l0.7-0.3c0.4-0.1,0.8-0.1,1,0c0.1,0,0.1,0,0.1-0.1c0,0,0-0.1-0.1-0.1     c0,0-0.5-0.1-1,0l-0.7,0.3L7.1,52c-0.5,0.2-0.8,0.2-0.9,0.2c-0.1,0-0.1,0-0.1,0.1C6,52.4,6.1,52.4,6.1,52.4z"></path>
			<path class="st0" d="M6.1,53.7c0.1,0,0.5,0,1-0.3l0.4-0.2L8.2,53c0.4-0.1,0.8-0.1,1,0c-0.1,0-0.1-0.1-0.1-0.1     c0-0.1,0.1-0.1,0.1-0.1c0,0-0.5-0.1-1,0l-0.7,0.3l-0.4,0.2c-0.5,0.2-0.8,0.2-0.9,0.2c-0.1,0-0.1,0.1-0.1,0.1     C6,53.7,6.1,53.7,6.1,53.7z"></path>
			<path class="st0" d="M11.5,48.9c0,0.1,0,0.1-0.1,0.1c0.1,0,0.6-0.1,1,0l0.7,0.3l0.4,0.2c0.5,0.2,0.9,0.3,1,0.3     c0.1,0,0.1,0,0.1-0.1c0,0,0-0.1-0.1-0.1c-0.1,0-0.5,0-0.9-0.2l-0.4-0.2l-0.7-0.3c-0.5-0.1-1,0-1,0C11.5,48.8,11.5,48.9,11.5,48.9     z"></path>
			<path class="st0" d="M11.5,50.4c0.1,0,0.6-0.1,1,0l0.7,0.3l0.4,0.2c0.5,0.2,0.9,0.2,1,0.3c0.1,0,0.1,0,0.1-0.1     c0-0.1,0-0.1-0.1-0.1c-0.1,0-0.5,0-0.9-0.2l-0.4-0.2l-0.7-0.3c-0.5-0.1-1,0-1,0c-0.1,0-0.1,0.1-0.1,0.1     C11.4,50.3,11.4,50.4,11.5,50.4z"></path>
			<path class="st0" d="M12.4,51.7l0.7,0.3l0.4,0.2c0.5,0.2,0.9,0.2,1,0.3c0.1,0,0.1,0,0.1-0.1c0-0.1,0-0.1-0.1-0.1     c-0.1,0-0.5,0-0.9-0.2l-0.4-0.2l-0.7-0.3c-0.5-0.1-1,0-1.1,0c-0.1,0-0.1,0.1-0.1,0.1c0,0.1,0.1,0.1,0.1,0.1     C11.6,51.7,12,51.6,12.4,51.7z"></path>
			<path class="st0" d="M13.1,53.3l0.4,0.2c0.5,0.2,0.9,0.2,1,0.3c0.1,0,0.1,0,0.1-0.1c0-0.1,0-0.1-0.1-0.1c-0.1,0-0.5,0-0.9-0.2     l-0.4-0.2l-0.7-0.3c-0.5-0.1-1,0-1.1,0c0.1,0,0.1,0,0.1,0.1c0,0.1,0,0.1-0.1,0.1c0.1,0,0.6-0.1,1,0L13.1,53.3z"></path>
			<path class="st0" d="M17.5,48.8h-0.9l-0.8-0.5c0,0-0.1-0.1-0.1-0.1h-1.1c-0.2,0-0.4-0.1-0.6-0.3c-0.4-0.3-0.9-0.7-1.8-0.7     c-1.1,0-1.6,0.4-1.8,0.7c-0.3-0.3-0.8-0.7-1.8-0.7c-0.9,0-1.4,0.4-1.8,0.7c-0.2,0.2-0.4,0.3-0.6,0.3H4.9c-0.1,0-0.1,0-0.2,0.1     l-0.8,0.5H3.1c-0.1,0-0.2,0.1-0.2,0.2v7.7c0,0.1,0.1,0.2,0.2,0.2c0,0,5.7,0,5.9,0c0.1,0.1,0.4,0.4,0.9,0.5c0.2,0,0.6,0,0.8,0     c0.5-0.1,0.8-0.3,0.9-0.4c0.2,0,5.9,0,5.9,0c0.1,0,0.2-0.1,0.2-0.2v-7.7C17.7,48.9,17.7,48.8,17.5,48.8z M10.5,48.5     c0,0,0.2-0.7,1.6-0.7c0.8,0,1.2,0.3,1.6,0.6c0.3,0.2,0.5,0.4,0.9,0.4c0,0,0.6,0,0.9,0c0,0.4,0,5.8,0,6.2c-0.3,0-0.9,0-0.9,0     c-0.3,0-0.6-0.1-1-0.3c-0.5-0.2-1-0.4-1.6-0.4c-0.7,0-1.2,0.4-1.4,0.6C10.5,54.2,10.5,48.5,10.5,48.5z M5.1,48.7     c0.3,0,0.9,0,0.9,0c0.4,0,0.6-0.2,0.9-0.4c0.4-0.3,0.8-0.6,1.6-0.6c1.4,0,1.6,0.8,1.6,0.8c0,0,0,5.7,0,6.3     c-0.3-0.2-0.8-0.6-1.4-0.6c-0.6,0-1.1,0.2-1.6,0.4c-0.4,0.2-0.7,0.3-1,0.3c0,0-0.6,0-0.9,0C5.1,54.5,5.1,49.1,5.1,48.7z      M4.2,49.2c0.1,0,0.3-0.2,0.5-0.3v6.3c0,0.1,0.1,0.2,0.2,0.2H6c0.4,0,0.8-0.2,1.2-0.3c0.4-0.2,0.9-0.4,1.4-0.4     c0.7,0,1.3,0.6,1.3,0.6c0,0.1,0.1,0.1,0.2,0.1l0.2,0h0h0l0.2,0c0.1,0,0.1,0,0.2-0.1c0,0,0.6-0.6,1.3-0.6c0.5,0,1,0.2,1.4,0.4     c0.4,0.2,0.8,0.3,1.2,0.3h1.1c0.1,0,0.2-0.1,0.2-0.2v-6.3c0.2,0.1,0.4,0.3,0.5,0.3c0,0.2,0,6,0,6.4c-0.4,0-5,0-5,0     c-0.1,0-0.1,0-0.2,0.1c0,0-0.3,0.3-0.8,0.4l-0.2,0c-0.5,0-0.8-0.4-0.8-0.4c0,0-0.1-0.1-0.2-0.1c0,0-4.6,0-5,0     C4.2,55.1,4.2,49.4,4.2,49.2z M17.3,56.5c-0.4,0-5.8,0-5.8,0c-0.1,0-0.1,0-0.2,0.1c0,0-0.3,0.3-0.7,0.4c-0.1,0-0.5,0-0.7,0     c-0.5-0.1-0.7-0.4-0.7-0.4c0,0-0.1-0.1-0.2-0.1c0,0-5.4,0-5.8,0c0-0.4,0-6.8,0-7.2c0.1,0,0.3,0,0.5,0v6.5C3.8,55.9,3.9,56,4,56     c0,0,5,0,5.1,0c0.2,0.1,0.5,0.4,1.1,0.5l0.3,0c0.5-0.1,0.9-0.3,1-0.5c0.2,0,5.1,0,5.1,0c0.1,0,0.2-0.1,0.2-0.2v-6.5     c0.1,0,0.3,0,0.5,0C17.3,49.7,17.3,56.1,17.3,56.5z"></path>
		</g>
	</g>
	<g id="Crown_8_">
		<g>
			<path class="st0" d="M19.3,41.7c-2.8,0-5.8,0.7-5.8,1.9c0,0.6,0.6,1,1.6,1.4c0.1,0,0.4,0.1,0.4,0.1c0,0-0.4-0.2-0.4-0.2     c-0.9-0.4-1.2-0.9-1.2-1.2c0-0.7,2.3-1.5,5.4-1.5c3.1,0,5.4,0.8,5.4,1.5c0,0.4-0.3,0.8-1.1,1.2c0,0-0.3,0.1-0.3,0.2     c0,0,0.4-0.1,0.4-0.1c0.9-0.3,1.6-0.8,1.6-1.3C25.1,42.3,22.1,41.7,19.3,41.7z"></path>
			<path class="st0" d="M25.9,39.5c-0.3,0.3-0.8,1.3-0.9,1.6c0,0,0,0,0,0s0,0,0,0c-0.2-0.1-0.5-0.3-0.9-0.4c-1.2-0.5-3-0.7-4.8-0.7     h0c-1.8,0-3.6,0.3-4.8,0.7c-0.4,0.1-0.7,0.3-0.9,0.4c0,0,0,0,0,0s0,0,0,0c-0.1-0.3-0.6-1.2-0.9-1.6c-0.1-0.1-0.2,0-0.1,0.1     c0.4,0.8,0.6,1.5,0.6,1.8c0,0.1,0,0.2,0.2,0.3c0.1,0,0.1,0,0.2,0c0.3-0.2,0.6-0.4,1.1-0.6c1.2-0.4,2.9-0.7,4.6-0.7h0     c1.8,0,3.5,0.3,4.6,0.7c0.5,0.2,0.9,0.4,1.1,0.6c0.1,0,0.1,0,0.2,0c0.1,0,0.1-0.2,0.2-0.3c0-0.3,0.2-1,0.6-1.8     C26.1,39.5,26,39.4,25.9,39.5z"></path>
			<path class="st0" d="M19.7,41c0-0.2-0.2-0.4-0.4-0.4c-0.2,0-0.4,0.2-0.4,0.4c0,0.2,0.2,0.4,0.4,0.4C19.5,41.4,19.7,41.2,19.7,41z     "></path>
			<path class="st0" d="M16.9,41.3c0-0.2-0.2-0.4-0.4-0.4c-0.2,0-0.4,0.2-0.4,0.4c0,0.2,0.2,0.4,0.4,0.4     C16.7,41.6,16.9,41.5,16.9,41.3z"></path>
			<path class="st0" d="M14,42.5c0.2-0.1,0.3-0.3,0.2-0.5c-0.1-0.2-0.3-0.3-0.5-0.2c-0.2,0.1-0.3,0.4-0.2,0.5     C13.6,42.5,13.9,42.6,14,42.5z"></path>
			<path class="st0" d="M15.3,41.6c0-0.1-0.1-0.2-0.2-0.2c-0.1,0-0.2,0.1-0.2,0.2c0,0.1,0.1,0.2,0.2,0.2     C15.3,41.8,15.3,41.7,15.3,41.6z"></path>
			<path class="st0" d="M18.1,41.1c0-0.1-0.1-0.2-0.2-0.2c-0.1,0-0.2,0.1-0.2,0.2c0,0.1,0.1,0.2,0.2,0.2     C18,41.3,18.1,41.2,18.1,41.1z"></path>
			<path class="st0" d="M22.5,41.3c0-0.2-0.2-0.4-0.4-0.4c-0.2,0-0.4,0.2-0.4,0.4c0,0.2,0.2,0.4,0.4,0.4     C22.3,41.6,22.5,41.5,22.5,41.3z"></path>
			<path class="st0" d="M24.9,41.8c-0.2-0.1-0.4,0-0.5,0.2c-0.1,0.2,0,0.4,0.2,0.5c0.2,0.1,0.4,0,0.5-0.1     C25.2,42.1,25.1,41.9,24.9,41.8z"></path>
			<path class="st0" d="M23.7,41.6c0-0.1-0.1-0.2-0.2-0.2c-0.1,0-0.2,0.1-0.2,0.2c0,0.1,0.1,0.2,0.2,0.2     C23.6,41.8,23.7,41.7,23.7,41.6z"></path>
			<path class="st0" d="M20.9,41.1c0-0.1-0.1-0.2-0.2-0.2c-0.1,0-0.2,0.1-0.2,0.2c0,0.1,0.1,0.2,0.2,0.2     C20.8,41.3,20.9,41.2,20.9,41.1z"></path>
			<path class="st0" d="M19.3,36.2c-0.2,0-0.4,0.2-0.4,0.4c0,0.2,0.2,0.4,0.4,0.4c0.2,0,0.4-0.2,0.4-0.4     C19.7,36.4,19.5,36.2,19.3,36.2z"></path>
			<path class="st0" d="M19.3,35.1c-0.2,0-0.4,0.2-0.4,0.4c0,0.2,0.2,0.4,0.4,0.4c0.2,0,0.4-0.2,0.4-0.4     C19.7,35.2,19.5,35.1,19.3,35.1z"></path>
			<path class="st0" d="M19.3,33.9c-0.2,0-0.4,0.2-0.4,0.4c0,0.2,0.2,0.4,0.4,0.4c0.2,0,0.4-0.2,0.4-0.4     C19.7,34.1,19.5,33.9,19.3,33.9z"></path>
			<path class="st0" d="M17.3,34.8c0.2,0,0.4-0.2,0.4-0.4c0-0.2-0.2-0.4-0.4-0.4c-0.2,0-0.4,0.2-0.4,0.4     C16.9,34.7,17.1,34.8,17.3,34.8z"></path>
			<path class="st0" d="M16,34.4c0.2,0,0.4-0.2,0.4-0.4c0-0.2-0.2-0.4-0.4-0.4c-0.2,0-0.4,0.2-0.4,0.4C15.6,34.2,15.8,34.4,16,34.4z     "></path>
			<path class="st0" d="M14.7,34.1c0.2,0,0.4-0.2,0.4-0.4s-0.2-0.4-0.4-0.4c-0.2,0-0.4,0.2-0.4,0.4S14.4,34.1,14.7,34.1z"></path>
			<path class="st0" d="M13.3,34.3c0.2,0,0.4-0.2,0.4-0.4c0-0.2-0.2-0.4-0.4-0.4s-0.4,0.2-0.4,0.4C12.9,34.1,13.1,34.3,13.3,34.3z"></path>
			<path class="st0" d="M12.1,35.1c0.2,0,0.4-0.2,0.4-0.4c0-0.2-0.2-0.4-0.4-0.4c-0.2,0-0.4,0.2-0.4,0.4     C11.7,34.9,11.9,35.1,12.1,35.1z"></path>
			<path class="st0" d="M11.4,36.3c0.2,0,0.4-0.2,0.4-0.4c0-0.2-0.2-0.4-0.4-0.4c-0.2,0-0.4,0.2-0.4,0.4     C11,36.1,11.2,36.3,11.4,36.3z"></path>
			<path class="st0" d="M11.8,37.3c0-0.2-0.2-0.4-0.4-0.4c-0.2,0-0.4,0.2-0.4,0.4c0,0.2,0.2,0.4,0.4,0.4     C11.6,37.7,11.8,37.5,11.8,37.3z"></path>
			<path class="st0" d="M11.9,38.2c-0.2,0-0.4,0.2-0.4,0.4c0,0.2,0.2,0.4,0.4,0.4c0.2,0,0.4-0.2,0.4-0.4     C12.3,38.4,12.1,38.2,11.9,38.2z"></path>
			<path class="st0" d="M23.9,44c0-1-3-1.2-4.7-1.2c-1.6,0-4.7,0.3-4.7,1.2c0,1,3.1,1.2,4.7,1.2C20.9,45.2,23.9,44.9,23.9,44z      M19.3,44.8c-2.8,0-4.2-0.6-4.2-0.8c0-0.2,1.4-0.8,4.2-0.8c2.8,0,4.2,0.6,4.2,0.8C23.5,44.2,22,44.8,19.3,44.8z"></path>
			<path class="st0" d="M18.7,33.1h0.4v0.4c0,0.1,0.1,0.2,0.2,0.2c0.1,0,0.2-0.1,0.2-0.2v-0.4h0.4c0.1,0,0.2-0.1,0.2-0.2     s-0.1-0.2-0.2-0.2h-0.4v-0.4c0-0.1-0.1-0.2-0.2-0.2c-0.1,0-0.2,0.1-0.2,0.2v0.4h-0.4c-0.1,0-0.2,0.1-0.2,0.2S18.5,33.1,18.7,33.1     z"></path>
			<path class="st0" d="M13.4,39.7L13.4,39.7L13.4,39.7L13.4,39.7c0.2,0.4,0.7,0.7,1.4,0.5c0.3-0.1,0.7-0.2,0.9-0.5     c0.1-0.2,0.2-0.5,0-0.7c-0.1-0.1-0.2-0.2-0.3-0.1c-0.1,0-0.1,0.2,0,0.2c0.1,0.1,0,0.3-0.1,0.4c-0.1,0.1-0.3,0-0.3,0     c0,0,0.2-0.2,0-0.4c-0.2-0.1-0.6-0.5,0-0.8c0.5-0.2,0.8,0.4,0.9,0.5c0,0.1,0.1,0.1,0.1,0c-0.1-0.4-0.5-0.6-0.6-1.1     c-0.1-0.4,0.2-0.7,0.3-0.8c0,0,0.1-0.1,0.2,0c0.2,0.1,0.5,0.2,0.6,0.6c0.1,0.5-0.2,0.8-0.1,1.2c0,0.1,0.1,0.1,0.1,0     c0-0.1,0.1-0.8,0.6-0.8c0.6,0,0.4,0.6,0.3,0.8c-0.1,0.2,0.1,0.3,0.2,0.3c0,0.1-0.1,0.2-0.2,0.2c-0.2,0-0.3-0.2-0.3-0.3     c0-0.1-0.1-0.2-0.1-0.2c-0.1,0-0.2,0.1-0.2,0.2c-0.1,0.3,0.1,0.5,0.2,0.7c0.3,0.3,0.8,0.2,1.1,0.2c0.9-0.1,1-0.6,1-0.6     c-0.2,0.1-0.6,0.2-0.6,0.2c0,0,0,0,0,0c-0.1,0-0.1-0.1-0.1-0.1v-0.9c0-0.1,0.1-0.1,0.1-0.1c0,0,0,0,0.1,0l0.6,0.2l-0.2-0.5     c0,0,0,0,0-0.1c0-0.1,0.1-0.1,0.1-0.1l0.5,0l0.5,0c0.1,0,0.1,0.1,0.1,0.1c0,0,0,0,0,0.1l-0.2,0.5l0.6-0.2c0,0,0.1,0,0.1,0     c0.1,0,0.1,0.1,0.1,0.1v0.9c0,0.1-0.1,0.1-0.1,0.1c0,0,0,0,0,0c0,0-0.4-0.2-0.6-0.2c0,0,0.1,0.5,1,0.6c0.3,0,0.8,0.1,1.1-0.2     c0.2-0.1,0.3-0.3,0.2-0.7c0-0.1-0.1-0.2-0.2-0.2c-0.1,0-0.2,0.1-0.1,0.2c0,0.2-0.1,0.3-0.3,0.3c-0.2,0-0.3-0.1-0.2-0.2     c0,0,0.3-0.1,0.2-0.3c-0.1-0.2-0.3-0.7,0.3-0.8c0.5,0,0.6,0.7,0.6,0.8c0,0.1,0.1,0.1,0.1,0c0.1-0.4-0.2-0.7-0.1-1.2     c0.1-0.3,0.4-0.5,0.6-0.6c0.1,0,0.2,0,0.2,0c0.1,0.1,0.4,0.4,0.3,0.8c-0.1,0.5-0.5,0.6-0.6,1.1c0,0.1,0,0.1,0.1,0     c0-0.1,0.4-0.7,0.9-0.5c0.6,0.3,0.2,0.7,0,0.8c-0.2,0.2,0,0.3,0,0.4c0,0.1-0.1,0.1-0.3,0c-0.2-0.1-0.2-0.3-0.1-0.4     c0.1-0.1,0-0.2,0-0.2c-0.1,0-0.2,0-0.3,0.1c-0.2,0.3-0.1,0.5,0,0.7c0.2,0.4,0.5,0.4,0.9,0.5c0.6,0.2,1.1-0.1,1.3-0.5v0l0,0l0,0     c0.4-0.6,1.4-1.9,1.4-3.2c0-1.2-1.1-2.1-2.5-2.1c-0.6,0-1.2,0.2-1.8,0.4c-0.6,0.2-1.2,0.4-1.8,0.4v-1.2c0-0.1-0.1-0.2-0.2-0.2     c-0.1,0-0.2,0.1-0.2,0.2v3.3h-1.6v-3.3c0-0.1-0.1-0.2-0.2-0.2c-0.1,0-0.2,0.1-0.2,0.2v1.2c-0.6,0.1-1.2-0.1-1.8-0.4     c-0.6-0.2-1.2-0.4-1.8-0.4c-1.4,0-2.5,0.9-2.5,2.1C12,37.7,13,39.1,13.4,39.7z M22.5,35.2c0.6-0.2,1.1-0.4,1.6-0.4     c1.2,0,2,0.7,2,1.7c0,0.3-0.1,0.7-0.2,1c-0.1-0.2-0.1-0.5-0.3-0.7c-0.4-0.5-1-0.7-1.8-0.7c-0.4-0.4-1.1-0.7-1.8-0.7     c-0.1,0-0.1,0-0.2,0C22.1,35.4,22.3,35.3,22.5,35.2z M20.5,35.6c0.1,0,0.3,0,0.4,0c-0.2,0.1-0.3,0.1-0.4,0.2V35.6z M20.6,36.4     c0.4-0.5,1.1-0.6,1.5-0.6c0.8,0,1.4,0.3,1.6,0.6c0,0.1,0.1,0.1,0.2,0.1c0.7,0,1.2,0.2,1.5,0.5c0.3,0.4,0.3,1,0.2,1.3c0,0,0,0,0,0     c-0.1,0.1-0.1,0.2-0.2,0.3c0.1-0.8-0.4-1.3-1-1.6c0,0-0.2-0.1-0.2,0c-0.1,0.2,1,0.9,0.7,1.8c-0.2,0.5-0.5,0.8-0.7,0.8     c0,0-0.1,0-0.1,0c0.1-0.1,0.2-0.2,0.2-0.4c0,0,0-0.1,0-0.1c0,0,0,0,0,0c0.1-0.2,0.3-0.4,0.3-0.7c0,0,0-0.1,0-0.1     c0-0.2-0.1-0.5-0.6-0.7c0,0-0.1,0-0.1-0.1c0,0,0-0.1,0-0.1c0-0.1,0-0.1,0-0.2c0-0.5-0.4-0.9-0.6-1.1c0,0-0.2-0.1-0.4-0.1     c-0.3,0.1-0.9,0.4-1,1c0,0,0,0.1,0,0.1c-0.1,0-0.1,0-0.2,0c-0.3,0-0.5,0.1-0.6,0.2c0-0.1-0.1-0.2-0.3-0.2     c0.1-0.2,0.3-0.4,0.5-0.6c0.3-0.2,0.7-0.4,0.6-0.4c0-0.1-0.1-0.1-0.3-0.1c-0.2,0-0.4,0.1-0.5,0.1c-0.3,0.1-0.5,0.3-0.7,0.5     L20.6,36.4C20.5,36.5,20.5,36.5,20.6,36.4z M17.6,37.6c-0.1-0.1-0.3-0.2-0.6-0.2c-0.1,0-0.1,0-0.2,0c0,0,0-0.1,0-0.1     c-0.1-0.6-0.7-0.9-1-1c-0.2-0.1-0.4,0.1-0.4,0.1c-0.2,0.2-0.6,0.6-0.6,1.1c0,0.1,0,0.1,0,0.2c0,0,0,0.1,0,0.1c0,0-0.1,0-0.1,0.1     c-0.4,0.2-0.5,0.5-0.5,0.7c0,0,0,0.1,0,0.1c0,0.3,0.2,0.5,0.3,0.7c0,0,0,0,0,0c0,0,0,0.1,0,0.1c0,0.1,0.1,0.3,0.2,0.4     c0,0-0.1,0-0.1,0c-0.2-0.1-0.5-0.3-0.7-0.8c-0.3-0.9,0.8-1.7,0.7-1.8c-0.1-0.1-0.2,0-0.2,0c-0.5,0.3-1,0.8-1,1.6     c-0.1-0.1-0.1-0.2-0.2-0.3c0,0,0,0,0,0c-0.1-0.3-0.1-0.9,0.2-1.3c0.3-0.4,0.8-0.6,1.5-0.5c0.1,0,0.1,0,0.2-0.1     c0.2-0.3,0.8-0.6,1.6-0.6c0.4,0,1,0.1,1.5,0.6c0,0,0,0,0,0V37c-0.2-0.2-0.4-0.4-0.7-0.5c-0.1,0-0.3-0.1-0.4-0.1     c-0.2,0-0.3,0-0.3,0.1c0,0.1,0.4,0.2,0.7,0.4c0.2,0.2,0.4,0.4,0.5,0.6C17.7,37.4,17.6,37.5,17.6,37.6z M18.1,35.6v0.2     c-0.1-0.1-0.3-0.2-0.4-0.2C17.8,35.6,17.9,35.6,18.1,35.6z M14.5,34.8c0.5,0,1.1,0.2,1.6,0.4c0.2,0.1,0.4,0.2,0.7,0.2     c-0.1,0-0.1,0-0.2,0c-0.7,0-1.5,0.3-1.8,0.7c-0.8,0-1.4,0.2-1.8,0.7c-0.2,0.2-0.3,0.4-0.3,0.7c-0.1-0.3-0.2-0.7-0.2-1     C12.4,35.6,13.3,34.8,14.5,34.8z"></path>
			<path class="st0" d="M21.3,34.8c0.2,0,0.4-0.2,0.4-0.4c0-0.2-0.2-0.4-0.4-0.4c-0.2,0-0.4,0.2-0.4,0.4     C20.9,34.7,21,34.8,21.3,34.8z"></path>
			<path class="st0" d="M22.6,34.4c0.2,0,0.4-0.2,0.4-0.4c0-0.2-0.2-0.4-0.4-0.4c-0.2,0-0.4,0.2-0.4,0.4     C22.2,34.2,22.4,34.4,22.6,34.4z"></path>
			<path class="st0" d="M23.9,34.1c0.2,0,0.4-0.2,0.4-0.4s-0.2-0.4-0.4-0.4c-0.2,0-0.4,0.2-0.4,0.4S23.7,34.1,23.9,34.1z"></path>
			<path class="st0" d="M25.3,34.3c0.2,0,0.4-0.2,0.4-0.4c0-0.2-0.2-0.4-0.4-0.4c-0.2,0-0.4,0.2-0.4,0.4     C24.9,34.1,25.1,34.3,25.3,34.3z"></path>
			<path class="st0" d="M26.5,35.1c0.2,0,0.4-0.2,0.4-0.4c0-0.2-0.2-0.4-0.4-0.4c-0.2,0-0.4,0.2-0.4,0.4     C26.1,34.9,26.3,35.1,26.5,35.1z"></path>
			<path class="st0" d="M27.2,36.3c0.2,0,0.4-0.2,0.4-0.4c0-0.2-0.2-0.4-0.4-0.4c-0.2,0-0.4,0.2-0.4,0.4     C26.8,36.1,27,36.3,27.2,36.3z"></path>
			<path class="st0" d="M27.2,36.9c-0.2,0-0.4,0.2-0.4,0.4c0,0.2,0.2,0.4,0.4,0.4c0.2,0,0.4-0.2,0.4-0.4     C27.6,37.1,27.4,36.9,27.2,36.9z"></path>
			<path class="st0" d="M26.7,38.2c-0.2,0-0.4,0.2-0.4,0.4c0,0.2,0.2,0.4,0.4,0.4c0.2,0,0.4-0.2,0.4-0.4     C27.1,38.4,26.9,38.2,26.7,38.2z"></path>
			<polygon class="st0" points="19.3,37.7 19.3,37.7 19.3,37.7    "></polygon>
		</g>
	</g>
	<path id="Tree_8_" class="st0" d="M32.3,14.5c0-0.1,0-0.1,0-0.2c0-0.2,0-0.3-0.2-0.5c-0.5-0.5-1.2,0-1.6,0.2c0-0.1-0.1-0.2-0.2-0.3   c0-0.1,0-0.1,0-0.2c0-0.3-0.3-0.4-0.5-0.5l0,0c0.3,0,0.9,0,1-0.5l0-0.3c-0.1,0,0.3,0,0.3,0c0.5,0.1,1.3,0.3,1.5-0.3   c0-0.1,0.1-0.1,0.1-0.2c0-0.2-0.1-0.4-0.2-0.5c0,0,0,0,0-0.1c0.2-0.1,0.8-0.4,0.8-1c0-0.1,0-0.3-0.1-0.5c-0.3-0.6-0.9-0.4-1.2-0.3   c0,0-0.1,0-0.1,0c0,0,0,0,0,0c0-0.1,0-0.1,0-0.2c0-0.1,0-0.3-0.1-0.4c-0.1-0.1-0.2-0.2-0.3-0.2c0.1-0.2,0.2-0.4,0.2-0.6   c0-0.1,0-0.2-0.1-0.4c-0.1-0.2-0.2-0.3-0.4-0.4c-0.4-0.2-0.9,0.1-1.2,0.2c0-0.1,0-0.1-0.1-0.2c0-0.1,0.1-0.2,0.1-0.2   c0-0.2-0.1-0.3-0.1-0.5c0.2-0.1,0.5-0.4,0.6-0.7c0,0,0-0.1,0-0.1c0-0.2-0.1-0.3-0.2-0.4c-0.4-0.5-1-0.3-1.3-0.2c0,0,0,0,0,0   c-0.1-0.2-0.2-0.4-0.6-0.5c-0.4-0.1-0.8,0.2-1.1,0.5c0,0-0.1,0.1-0.1,0.1c0,0,0,0,0,0l-0.4-0.3c-0.4-0.1-0.8,0.6-0.9,0.7   c0,0,0,0,0,0c-0.1-0.1-0.2-0.2-0.2-0.2c0,0,0.1-0.1,0.1-0.1c0.2-0.2,0.5-0.5,0.5-0.9c0,0,0,0,0,0c0-0.2-0.1-0.4-0.3-0.6   c-0.2-0.2-0.5-0.3-0.7-0.3c-0.5,0-0.8,0.4-1,0.6c0,0,0,0,0,0c0-0.1-0.1-0.2-0.1-0.2c0-0.1,0-0.2,0-0.3c0-0.1,0-0.2-0.1-0.3   c0-0.1-0.1-0.1-0.1-0.2c0.2-0.2,0.6-0.5,0.6-0.9c0-0.1,0-0.2-0.1-0.3c-0.2-0.4-0.5-0.5-0.7-0.5c0,0,0,0,0,0c0-0.1,0-0.2,0-0.3   c0-0.3-0.1-0.7-0.6-0.9c-0.6-0.1-1,0.4-1.2,0.6c0,0,0,0-0.1,0.1c-0.1-0.1-0.3-0.3-0.7-0.3c-0.1-0.2-0.4-0.4-0.7-0.4   c-0.6-0.1-0.8,0.6-0.9,1c0,0-0.1,0.1-0.1,0.2c0,0-0.1,0-0.1,0c-0.2,0-0.4-0.1-0.6,0c-0.2,0.1-0.3,0.3-0.3,0.5c0,0.3,0.2,0.8,0.4,1   c0,0,0,0.1,0.1,0.1c-0.3,0-0.5,0.1-0.6,0.3c-0.1,0.1-0.1,0.2-0.1,0.3c0,0-0.1-0.1-0.1-0.1c0.1-0.4,0.2-1.6,0-1.9   c-0.1-0.1-0.2-0.2-0.3-0.2c-0.1,0-0.1,0-0.1,0.1c0-0.4-0.1-1-0.5-1.2c-0.4-0.1-0.5,0-0.6,0.1c-0.3-0.4-0.8-1-1.4-0.7   c-0.3,0.1-0.4,0.4-0.4,0.6c0,0.3,0.1,0.7,0.2,0.9c0,0,0,0,0,0c-0.2,0-0.5,0.1-0.6,0.5c0,0.1,0,0.1,0,0.2c0,0,0,0,0,0   c-0.3-0.2-0.8-0.4-1.3-0.1c-0.2,0.2-0.3,0.4-0.3,0.7c0,0.4,0.2,0.8,0.3,1C13,4,12.7,4.2,12.7,4.6c0,0,0,0.1,0,0.1   c0,0.7,0.8,0.9,1.2,1c0,0,0,0,0.1,0c0,0,0,0,0,0c0,0.1-0.3,0.2-0.4,0.2c0,0-0.1-0.1-0.1-0.1c-0.4-0.2-1.1-0.7-1.7,0   c-0.1,0.2-0.2,0.3-0.2,0.5c0,0.3,0.3,0.7,0.4,0.8c0,0,0.1,0.2,0.1,0.2c0,0-0.1,0.1-0.1,0.1l-0.1,0.5c0,0,0,0.1,0,0.1   c0,0-0.1,0-0.1,0.1c0-0.1,0-0.2,0-0.2c0-0.4-0.1-1-0.5-1.1C11,6.7,10.8,6.8,10.7,7c0,0,0,0,0,0c-0.1-0.4-0.2-1.2-0.7-1.2   C9.6,5.7,9.5,6,9.4,6.2c0,0,0,0,0,0.1c0,0,0,0,0,0C9.1,6,8.8,5.6,8.3,5.8C8,6,7.9,6.3,7.9,6.7c0,0.2,0,0.4,0.1,0.6c0,0,0,0.1,0,0.1   c0,0-0.1,0-0.1,0C7.7,7.5,7.5,7.6,7.4,7.8c0,0.1,0,0.1,0,0.2c0,0.5,0.6,0.8,1,1C8.2,9.1,8.1,9.2,8,9.3C7.8,9.1,7.5,9.1,7.2,9.2   C6.9,9.3,6.8,9.6,6.8,9.8c0,0,0,0.1,0,0.1c-0.3-0.1-0.7-0.1-1,0.4c-0.1,0.2-0.1,0.3-0.1,0.5c0,0.2,0,0.3,0.1,0.4   c0.2,0.4,0.6,0.5,0.9,0.6c-0.1,0.1-0.1,0.2-0.2,0.3l0.2,0.5c0.3,0.3,0.7,0.2,1,0c0.4-0.1,0.5-0.2,0.6-0.1c0,0-0.1,0.2-0.2,0.3   c-0.1,0-0.2,0-0.2,0c-0.3,0.1-0.4,0.3-0.5,0.4c-0.3-0.2-0.7-0.6-1.2-0.5c-0.4,0.1-0.4,0.3-0.4,0.6c0,0.1,0,0.2,0,0.3v0   c0,0-0.1,0-0.1,0c-0.3-0.1-0.6-0.1-0.9,0c-0.2,0.1-0.3,0.3-0.3,0.5c0,0.1,0,0.1,0,0.2c0,0.6,0.7,0.8,1,0.9   c-0.1,0.1-0.2,0.3-0.2,0.4c0,0.1,0.1,0.3,0.2,0.4c0.5,0.5,1.1,0.1,1.3,0l0,0c0,0.1,0,0.2,0,0.3c0,0,0,0.1,0,0.1c0,0-0.1,0-0.1,0   c-0.2,0.1-0.5,0.1-0.6,0.4c0,0.1-0.1,0.2-0.1,0.3c0,0.1,0,0.2,0.1,0.3C6.4,18.1,7,18.1,7.3,18c0,0,0,0,0.1,0c0,0,0,0,0,0   c0,0.2,0,0.4,0.3,0.6c0.5,0.5,1.3-0.1,1.6-0.4l0,0c0.1,0,0.1,0.1,0.2,0.1c0,0.1,0.1,0.2,0.2,0.3h0c0,0-0.1,0.1-0.1,0.1   C9.4,19,9,19.4,9,19.8c0,0.2,0,0.3,0.2,0.5c0.3,0.4,0.9,0.1,1.4-0.1c0,0,0.3-0.1,0.3-0.1c0,0,0,0,0,0c0,0,0,0.1,0,0.1   c0,0.2,0.2,0.6,0.8,0.5c0.7-0.1,0.9-0.7,1.1-1.1c0-0.1,0.1-0.2,0.1-0.3c0.1,0.1,0.3,0.3,0.3,0.3l0.3-0.1c0.4-0.3,0.7-1.2,0.8-1.5   c0.9,0.4,1.7,1.6,1.8,1.9c0.1,0.2,0.4,0.7,0.9,1.5c0.3,0.4,0.6,1,0.7,1.1c-0.2,1.2-0.7,2.1-1.6,2.6l-0.4,0.2c-0.8,0.4-2,1-2.5,1.5   c-0.1,0-0.1,0-0.2,0c-0.5,0-0.7,0.1-0.9,0.2c-0.3-0.2-0.7-0.3-1-0.3c-0.9,0-1.3,0.4-1.4,0.8c-0.3,0.5-0.2,1.2,0,1.6   c0.3,0.5,0.8,0.7,1.4,0.7c0.4,0,0.7-0.1,0.8-0.2c0.2,0.1,0.5,0.2,0.9,0.2c0.5,0,0.8-0.1,0.9-0.2c0.2,0.1,0.5,0.2,0.8,0.2   c0.4,0,0.6-0.1,0.8-0.2c0.2,0.1,0.4,0.2,0.8,0.2c0.4,0,0.7-0.1,0.9-0.2c0.2,0.1,0.5,0.2,0.8,0.2c0.4,0,0.6-0.1,0.8-0.2   c0.2,0.1,0.4,0.2,0.8,0.2c0.4,0,0.7-0.1,0.8-0.2c0.2,0.1,0.5,0.2,0.8,0.2c0.4,0,0.6-0.1,0.8-0.2c0.2,0.1,0.4,0.2,0.8,0.2   c0.4,0,0.7-0.1,0.8-0.2c0.2,0.1,0.5,0.2,0.8,0.2c0.4,0,0.6-0.1,0.8-0.2c0.2,0.1,0.4,0.2,0.8,0.2c0.5,0,0.8-0.1,0.9-0.2   c0.3,0.2,0.7,0.3,1,0.3c0.7,0,1.2-0.3,1.5-0.8c0.3-0.5,0.2-1.2-0.1-1.5c-0.4-0.5-0.8-0.7-1.4-0.7c-0.4,0-0.7,0.1-0.8,0.2   c-0.1-0.1-0.3-0.2-0.6-0.2c-0.3-0.5-0.7-0.7-2-1.3l-0.2-0.1c-1.4-0.6-1.8-1.2-2-1.7l0-0.1c-0.2-0.4-0.7-3,0.3-4.5   c0.6-0.9,1.3-1.3,1.7-1.5c0.1,0.4,0.2,1,0.4,1.3l0.4,0.2c0,0,0.1-0.1,0.2-0.1c0,0.1,0.1,0.1,0.1,0.1c0.2,0.4,0.4,1,0.9,1.1   c0.4,0.1,0.5-0.1,0.6-0.2c0.2,0.2,0.5,0.5,0.9,0.5c0.4,0,0.5-0.2,0.6-0.3c0.2,0.1,0.8,0.3,1.1-0.2c0.1-0.1,0.1-0.3,0.1-0.4   c0-0.3-0.3-0.5-0.4-0.6c0,0,0,0,0,0c0.1-0.1,0.2-0.2,0.2-0.4c0.1,0,0.3,0,0.4-0.1c0.2-0.1,0.2-0.3,0.3-0.5c0,0,0,0,0,0   c0.2,0,0.7,0.1,0.9-0.3c0-0.1,0.1-0.2,0.1-0.3c0.2-0.1,0.3-0.2,0.3-0.4l0,0c0.3,0.1,0.7,0.3,1,0.2c0.3-0.1,0.4-0.5,0.4-0.7l0,0   c0.3,0,0.7,0.1,1-0.1c0.2-0.1,0.3-0.3,0.3-0.6c0-0.1,0-0.1,0-0.2C33.5,14.8,32.7,14.6,32.3,14.5z M30.3,13.8c0,0.1-0.1,0.1-0.2,0.2   C30.1,13.9,30.2,13.9,30.3,13.8z M29.9,13.5c0,0-0.1,0.1-0.1,0.1l-0.2,0.2L29.5,14c-0.1,0.3-0.3,0.8-1.3,1c0,0,0-0.1-0.1-0.1   c-0.1-0.2-0.3-0.5-0.4-0.8c-0.1-0.5,0-0.9,0.1-1.1c0.8-0.1,1.4,0,1.6,0.3c0,0,0.2,0.2,0.2,0.2C29.8,13.4,29.9,13.5,29.9,13.5z    M25.2,13.5l0.1,0.3l0.1,0.1c-0.3,0.2-0.8,0.1-1.1,0l-0.4,0c-0.2,0.1-0.2,0.2-0.2,0.4l0,0.1c-0.2,0-0.9-0.1-1.2-0.3   c0.2-0.2,0.4-0.4,0.5-0.6c0,0,0,0,0,0c0.2-0.1,0.5-0.2,0.7-0.3c0.5-0.2,1.3-0.5,1.2-0.6c-0.1-0.1-0.8,0-1.4,0.2   c-0.4,0.1-1.1,0.4-1.4,0.5c0.2-0.5,0.5-1.1,0.7-1.2c0.1,0.2,0.2,0.2,0.3,0.2l0.4-0.3c0.5-0.5,0.7-0.6,0.8-0.6l0.1,0.1l0.2,0.2   c0.2,0.1,0.3,0,0.5-0.1c0.1-0.1,0.3-0.2,0.4-0.2c0.1,0,0.1,0.1,0.2,0.2l0.2,0.2c0,0,0.5,0,0.5,0c0.2,0,0.6-0.1,0.7,0   c0.1,0.3,0,0.4-0.3,0.6c-0.2,0.1-0.3,0.2-0.3,0.4l0.1,0.3l0,0.2c0,0.1-0.1,0.1-0.2,0.2c0,0-0.1,0-0.1,0c-0.1,0-0.3,0-0.5,0l-0.4,0   c-0.1,0-0.1,0-0.1,0C25.2,13.5,25.2,13.5,25.2,13.5z M22.2,16.4c-0.2,0.2-0.4,0.4-0.6,0.7c0-0.1,0-0.1,0-0.2c0-0.5,0.1-1.1,0.2-1.5   c0.1-0.3,0.3-0.6,0.4-0.8c0.1,0.1,0.3,0.2,0.5,0.2c0,0.1-0.1,0.2-0.2,0.2l-0.4,0.3C22,15.6,22,16.1,22.2,16.4z M21.3,12.5   c0-0.2,0.1-0.4,0.2-0.7c0.1-0.4,0.9-1.7,0.7-1.8c-0.2-0.1-0.9,1.3-1.1,1.7c0,0.1-0.1,0.3-0.1,0.4c-0.2-0.3-0.3-0.8-0.3-1.1   c0-0.1,0-0.3,0.1-0.3c0.1-0.1,0.1-0.1,0.2-0.1l0.2,0c0.1,0,0.1-0.1,0.1-0.2c0-0.1,0-0.2-0.1-0.3c-0.1-0.2-0.2-0.6-0.2-0.9   c0-0.1,0-0.2,0-0.2c0.1-0.1,0.1-0.2,0.3-0.2c0,0,0.1,0.1,0.1,0.1c0.2,0.1,0.3,0.1,0.4,0c0,0,0.1-0.3,0.1-0.3c0-0.2,0.1-0.9,0.4-0.9   l0.1,0c0.1,0,0.2,0.1,0.3,0l0.1-0.1c0.5-0.4,0.6-0.4,0.6-0.4c0.1,0,0.1,0.3,0.1,0.4c0,0.2,0,0.4,0.2,0.5c0,0,0.3,0.1,0.3,0.1l0.2,0   c0.2,0.4-0.2,0.7-0.5,1c-0.1,0.1-0.2,0.2-0.2,0.3c0,0,0.2,0.2,0.2,0.2l0.1,0.1c0,0.2-0.5,0.5-0.7,0.6l-0.3,0.3   c-0.1,0-0.1,0-0.1,0.1c0,0.1,0,0,0.1,0.1l0.3,0.1l0.1,0C23.2,11.6,21.8,12.3,21.3,12.5z M22,12.7c-0.1,0.4-0.2,0.7-0.3,0.9   c-0.1,0-0.2,0.1-0.3,0.1c0,0-0.1,0-0.1,0.1c0,0,0,0,0,0c0-0.3,0-0.5-0.1-0.7C21.4,12.9,21.7,12.8,22,12.7z M20.8,12.5   C20.8,12.4,20.8,12.4,20.8,12.5C20.9,12.4,20.9,12.4,20.8,12.5C20.9,12.4,20.9,12.5,20.8,12.5C20.8,12.5,20.8,12.5,20.8,12.5z    M21.1,13.1L21.1,13.1C21,13.1,21,13.1,21.1,13.1C21,13.1,21,13.1,21.1,13.1z M20.6,12.4c-0.1,0-0.2,0-0.3,0l0,0   c0-0.3-0.2-1-0.5-1.3c-0.3-0.2-0.6,0-0.8,0.1c-0.2-0.4-0.6-0.9-1-1c0,0,0,0-0.1-0.1c-0.2-0.1-0.4-0.3-0.3-0.6   c0-0.1,0.2-0.2,0.3-0.2c0.2-0.1,0.2-0.3,0.2-0.5c0-0.5,0-0.9,0.3-0.9c0.4-0.1,0.7,0.3,1,0.7l0.3,0.3c0.2,0.1,0.3-0.1,0.4-0.2   c0.1-0.2,0.2-0.2,0.2-0.2c0.2,0.1,0.3,0.3,0.3,0.4c-0.1,0.1-0.1,0.3-0.1,0.4c0,0.4,0.1,0.7,0.2,1c-0.1,0-0.2,0.1-0.3,0.2   c-0.1,0.2-0.2,0.4-0.2,0.6C20.2,11.5,20.4,12,20.6,12.4z M20,15.1c0.1,0.4,0.1,0.7,0.1,1c0,0.1,0,0.2,0,0.3c0,0.3-0.2,0.9-0.3,1.3   c0-0.1-0.7-1.2-0.7-1.2c-0.4-0.6-0.4-1.1-0.5-1.5c0,0,0,0,0,0c0.6,0.2,0.8,0.2,1.2,0.1L20,15.1z M20.3,14.1   c-0.1-0.1-0.2-0.2-0.3-0.3c0-0.1-0.3-0.3-0.6-0.5c-0.5-0.4-1.2-0.8-1.3-0.6c-0.1,0.1,0.5,0.5,1,0.9c0.3,0.3,0.5,0.6,0.6,0.8   c0,0,0,0,0,0.1c0,0.1,0.1,0.1,0.1,0.2l-0.1,0c-0.4,0.1-0.6,0.1-1-0.1l-0.2-0.1c0-0.1,0-0.3,0-0.3c0-0.1,0-0.1,0-0.1   c-0.1,0-0.1,0-0.1,0l-0.4,0.1c-0.2,0.1-0.6,0.2-0.8,0.2c0,0-0.1,0-0.2-0.2c-0.1-0.3,0-0.4,0.1-0.5c0.1-0.1,0.2-0.2,0.1-0.3   c0-0.2-0.2-0.2-0.5-0.3c-0.4-0.1-0.7-0.2-0.7-0.4c0-0.1,0.2-0.3,0.3-0.4c0,0,0.1-0.1,0.1-0.1c0-0.1,0-0.1,0-0.2c0,0-0.4-0.5,0-0.8   c0.3-0.2,0.5-0.1,0.6,0c0.1,0.1,0.2,0.1,0.3,0.1c0.1,0,0.1-0.1,0.1-0.2c0,0,0-0.3,0.2-0.4c0.2,0,0.7,0.5,0.8,1   c0,0.1,0.1,0.1,0.1,0.2c0.1,0,0.3,0,0.4-0.1c0.1,0,0.3-0.2,0.3-0.2c0.2,0.2,0.4,0.9,0.4,1.1c0,0.1,0.1,0.2,0.1,0.2   c0.1,0.1,0.3,0.1,0.4,0l0.2,0C20.6,12.9,20.5,13.3,20.3,14.1z M16.7,14.2C16.7,14.2,16.7,14.2,16.7,14.2l0,0.2   c0,0.3-0.4,0.6-0.6,0.7c-0.1-0.1-0.2-0.1-0.3-0.2c0-0.1-0.2-0.6-0.3-1.1c-0.2-1-0.2-1.4-0.3-1.3c-0.1,0-0.2,0.4-0.1,1.3   c0,0.2,0.1,0.4,0.1,0.6c0,0-0.1-0.1-0.1-0.1l-0.3,0c0,0,0,0-0.1,0c-0.1-0.5-0.3-0.8-0.5-1.1c0,0,0-0.1,0-0.1c0-0.1,0-0.2,0-0.3   c0,0,0.3-0.3,0.3-0.3c0-0.2-0.1-0.3-0.2-0.4c-0.2-0.2-0.4-0.4-0.3-0.6c0,0,0-0.1,0.1-0.1l0.2-0.1c0.1-0.1,0.1-0.2,0.1-0.4   c0-0.4,0-0.8,0.4-1l0.1,0c0.2,0.1,0.4,0.5,0.5,0.7c0,0,0,0.1,0.1,0.1c0.1,0.1,0.3,0,0.4,0c0.2-0.1,0.4-0.1,0.5,0   C16.1,11,16,11.2,16,11.4c0,0.2,0.1,0.4,0.2,0.6c-0.1,0.1-0.3,0.4-0.3,0.6c0,0.6,0.6,0.7,1,0.8c-0.1,0.1-0.2,0.2-0.2,0.5   C16.7,13.9,16.7,14.1,16.7,14.2z M16.5,15.7C16.5,15.7,16.5,15.8,16.5,15.7c0.5,0.1,1.4,0.4,1.7,2.1c0.1,0.8,0.2,1.3,0.2,1.6   c0,0.2,0,0.4,0,0.4c-0.4-0.3-1.7-1.4-1.7-2.8c0,0,0-0.2,0-0.2C16.7,16.4,16.6,16,16.5,15.7z M13.8,13.1c-0.1,0-0.2,0.1-0.2,0.2   c-0.2-0.3-0.4-0.6-0.8-0.7c-0.3-0.1-0.4,0.2-0.5,0.3c-0.2-0.2-0.6-0.4-0.9-0.3c-0.1,0-0.1,0-0.2,0.1c-0.3-0.1-0.6-0.1-0.9-0.1   c0-0.1,0-0.1,0-0.2c0,0-0.2-0.3-0.2-0.3c-0.2-0.1-0.4-0.3-0.4-0.5c0-0.2,0.2-0.3,0.4-0.3l0,0c0.1,0,0.1,0,0.2,0l0.4-0.2l0.1-0.2   c0-0.1,0.1-0.2,0.1-0.2c0.1,0.3,0.3,0.5,0.6,0.7c0,0.3,0.2,0.6,0.5,0.7c0.5,0.2,1.3,0.1,1.7-0.1c0.1,0.2,0.2,0.3,0.3,0.4   c0,0,0,0,0,0c0,0-0.2,0.1-0.2,0.1C13.8,12.7,13.8,12.8,13.8,13.1C13.8,13,13.8,13,13.8,13.1z M9.4,14.3L9.3,14c0,0,0-0.1,0-0.1   c-0.1-0.1-0.1-0.2,0-0.3c0.1-0.1,0.2-0.1,0.4-0.1l0.2,0c0,0,0.1-0.1,0.1-0.1c0.2-0.1,0.5-0.4,1-0.2c0,0.1-0.1,0.2-0.1,0.3   c0,0.3,0.1,0.5,0.3,0.6l-0.8,1.4c-0.2-0.1-0.5-0.3-0.7-0.6L9.4,14.3z M12,10.9c-0.2,0.2-0.2,0.2-0.3,0.2c0,0,0,0,0,0   c-0.5-0.3-0.7-0.9-0.7-1.3c0,0,0,0,0,0L11,9.5c0,0,0-0.1,0-0.1c0,0,0.1,0,0.1,0l0.2,0l0.2,0c0.3-0.1,0.8-0.2,1.4,0.1   C12.8,9.7,12.4,10.5,12,10.9z M15.7,10.4C15.7,10.4,15.7,10.4,15.7,10.4c0.1,0,0,0.1,0.1,0.2C15.8,10.5,15.8,10.5,15.7,10.4z    M15.2,6.5c0-0.1,0-0.3,0-0.3c0.1,0,0.3,0.1,0.3,0.2c0,0,0,0,0.1,0.1l0.2,0.1c0.3,0,0.8,0,1.1,0.8c-0.3,0.1-0.7,0.2-1,0.4   c-0.3,0.2-0.5,0.3-0.7,0.5c-0.4-0.7-0.2-1.1-0.1-1.3l0.1-0.2C15.2,6.8,15.2,6.5,15.2,6.5z M15.2,8.9C15.2,8.9,15.2,8.9,15.2,8.9   L15.2,8.9z M21.3,5.9c0,0,0.1-0.1,0.1-0.1c0.1-0.1,0.2-0.1,0.3-0.1c0.1,0,0.1,0.1,0.2,0.2l0,0.1c0.1,0.2,0.3,0.6,0.2,1.2   c0,0,0,0,0,0C22,7.1,21,6.8,20.3,6.8C20.5,6.3,21.1,6,21.3,5.9z M20.1,6.3C20.1,6.3,20,6.3,20.1,6.3L20.1,6.3   C20,6.3,20,6.3,20.1,6.3z M24.5,8.2c0.2-0.1,0.4-0.3,0.5-0.6c0-0.1,0-0.1,0-0.2c0-0.1-0.1-0.3-0.1-0.3C25,7,25.1,7,25.2,6.9   c0.1,0.1,0.2,0.3,0.3,0.4c0,0.1,0.2,0.2,0.2,0.2c0.2,0,0.3-0.1,0.5-0.2c0.3-0.2,0.6-0.3,0.8-0.1c0.2,0.1,0.2,0.3,0.2,0.4   c-0.3,0.2-0.5,0.6-0.6,0.7c-0.4-0.1-0.8,0-1.2,0.3c-0.2-0.1-0.8,0.1-1.1,0.7c-0.1,0.1-0.1,0.3-0.2,0.5c0,0-0.1-0.1-0.2-0.2   c0.4-0.3,0.6-0.7,0.6-1C24.5,8.5,24.5,8.3,24.5,8.2z M27.4,8.9l-0.1,0.2l0,0.1c0,0.1,0,0.1,0,0.2c0,0.3-0.1,0.7-0.5,1.1   c-0.4-0.2-0.8-0.4-1-0.7l-0.2-0.4c0-0.1-0.1-0.3-0.1-0.5c0.6-0.4,1.1-0.2,1.3-0.2c0,0,0,0,0.1,0l0.3-0.1c0,0,0.1,0,0.2,0   C27.4,8.8,27.4,8.9,27.4,8.9z M25.2,8.9C25.2,8.8,25.2,8.8,25.2,8.9C25.2,8.8,25.2,8.8,25.2,8.9L25.2,8.9z M24.7,9.5   C24.7,9.5,24.7,9.5,24.7,9.5c0.1-0.2,0.2-0.3,0.3-0.3L24.7,9.5z M24.8,10.9C24.8,10.9,24.8,10.8,24.8,10.9   c-0.2-0.2-0.2-0.4-0.2-0.6L24.8,10.9z M23.5,11.1c0-0.1-0.1-0.2-0.2-0.2c0.3-0.2,0.6-0.4,0.8-0.7c0,0.3,0.1,0.6,0.3,0.8   c-0.3,0-0.7,0.4-1,0.7c0,0,0,0,0,0c0,0,0,0,0,0c0.1-0.2,0.2-0.3,0.2-0.5C23.5,11.2,23.5,11.1,23.5,11.1z M26.8,12.7   C26.9,12.8,26.9,12.8,26.8,12.7L26.8,12.7C26.9,12.8,26.8,12.7,26.8,12.7z M26.9,12.8C26.9,12.8,26.9,12.8,26.9,12.8   C26.9,12.8,26.9,12.8,26.9,12.8L26.9,12.8L26.9,12.8C26.9,12.8,26.9,12.8,26.9,12.8z M31.6,9.4l0,0.4c0.1,0.3,0.4,0.2,0.7,0.1   c0.4-0.1,0.6-0.1,0.7,0.1c0.2,0.4,0,0.7-0.5,0.9L32.2,11c-0.1,0.2,0,0.4,0.1,0.5c0,0.1,0.1,0.2,0.1,0.2c-0.1,0.2-0.7,0.1-1,0   c-0.3-0.1-0.6-0.1-0.7,0c-0.2,0.1-0.2,0.3-0.2,0.4l0,0.1c0,0.2-0.3,0.2-0.7,0.1c-0.2,0-0.3,0-0.4,0.1c-0.3-0.1-0.8-0.2-1.4-0.1   c0,0,0-0.1-0.1-0.1c-0.1-0.1-0.2-0.1-0.4-0.2c0-0.1,0-0.1,0-0.2c0,0,0-0.1,0-0.1c0.6,0,1.8,0.1,2.1-0.6c0-0.1,0-0.1,0-0.2   c0-0.2-0.1-0.3-0.1-0.4c0.6,0,1.6,0,1.6-0.7c0,0,0-0.1,0-0.1c0-0.4-0.2-0.6-0.4-0.7c0.1,0,0.1-0.1,0.2-0.1C31,9.1,31.1,9,31.1,9   c0.3,0,0.4,0.1,0.4,0.1C31.6,9.1,31.6,9.2,31.6,9.4z M30.3,7.9c0.2-0.1,0.6-0.3,0.9-0.2c0,0,0.1,0,0.1,0.1c0.1,0.3,0,0.5-0.3,0.7   c0,0-0.1,0-0.1,0.1c-0.1,0-0.1,0.1-0.2,0.1c-0.2,0.2-0.4,0.3-0.5,0.5c0,0.1-0.1,0.1,0,0.2l0.2,0.2c0.2,0.1,0.3,0.1,0.3,0.4   c0,0.1-0.2,0.3-1.3,0.2c-0.3,0-0.4,0-0.5,0.2c-0.1,0.1,0,0.2,0.1,0.3c0.1,0.1,0.2,0.3,0.2,0.4c-0.2,0.5-1.4,0.4-1.8,0.4l-0.2,0   c-0.1-0.1-0.2-0.1-0.3-0.1c0.1-0.1,0.1-0.3,0.1-0.4c0.2-0.1,0.3-0.3,0.4-0.5h0c0,0,0.2-0.1,0.3-0.2C28.5,9.8,29.2,9,29.1,9   c-0.1-0.1-0.9,0.5-1.3,0.8c0-0.2,0-0.4,0-0.5c0,0,0-0.1,0-0.1c0.1-0.2,0.2-0.4,0-0.7c-0.2-0.2-0.4-0.1-0.6-0.1   C27.3,8.2,27.4,8,27.6,8c0.2,0,0.3,0,0.4,0.1l0.3,0.2c0.2,0.1,0.4-0.1,0.5-0.3c0.3-0.3,0.5-0.6,0.8-0.5c0.1,0,0.1,0.1,0.2,0.2   c0,0.1,0.1,0.2,0.2,0.3L30.3,7.9z M29.1,5.1C29,5.1,29,5.1,29.1,5.1C29,5.1,29,5.1,29.1,5.1z M27.3,5.3C27.3,5.3,27.3,5.3,27.3,5.3   C27.3,5.3,27.3,5.3,27.3,5.3z M26,6.1l0.1,0l0.2-0.2c0.1-0.1,0.4-0.5,0.5-0.5c0,0,0.2,0.2,0.2,0.2l0.3,0.2l0.4-0.3   c0.2-0.2,0.5-0.4,0.7-0.4c0.2,0,0.2,0.1,0.3,0.3l0.2,0.2l0.4,0c0.3-0.1,0.6-0.2,0.9,0.1c0.1,0.1,0.1,0.1,0.1,0.2   c0,0.2-0.4,0.4-0.5,0.5c-0.1,0-0.1,0.1-0.1,0.1c0,0.1,0,0.1,0,0.2c0.1,0.1,0.1,0.3,0.1,0.4c-0.6-0.1-1,0.4-1.2,0.7   c0,0-0.1,0.1-0.1,0.1c0,0-0.1-0.1-0.1-0.1c-0.1-0.1-0.3-0.2-0.5-0.2c0-0.1-0.1-0.3-0.3-0.5c0.1-0.1,0.2-0.1,0.3-0.2   c0.4-0.2,0.8-0.5,0.7-0.6c-0.1-0.1-0.6,0.1-1,0.3c-0.2,0.1-0.4,0.2-0.5,0.3c-0.4-0.1-0.8,0.1-1,0.2c0,0-0.1,0.1-0.2,0.1   c-0.1-0.2-0.2-0.3-0.3-0.4C25.8,6.5,26,6.3,26,6.1z M25.6,5.5C25.6,5.5,25.6,5.5,25.6,5.5C25.6,5.4,25.7,5.4,25.6,5.5   C25.7,5.4,25.6,5.4,25.6,5.5z M24.2,4.8l0.4-0.3C24.8,4.3,25.1,4,25.3,4c0.1,0,0.3,0.1,0.4,0.2c0.1,0.1,0.1,0.2,0.1,0.2   c0,0.2-0.2,0.4-0.4,0.5l-0.3,0.4c0,0.2,0.1,0.3,0.2,0.3c0.1,0.1,0.2,0.1,0.2,0.3c0,0.1-0.1,0.3-0.4,0.4c0,0-0.1,0-0.1,0.1   c-0.1,0.1-0.3,0.2-0.5,0.3c-0.1,0-0.1,0.1-0.2,0.2c0,0.1,0,0.2,0.1,0.3c0.1,0.1,0.1,0.2,0.1,0.3c-0.1,0.2-0.3,0.3-0.4,0.4   c-0.1,0-0.1,0-0.2,0c0,0,0,0-0.1,0c0-0.1,0-0.1,0-0.1c0-0.3,0-0.6-0.3-0.8c-0.1-0.1-0.3-0.1-0.4,0c0.1-0.1,0.2-0.3,0.3-0.4   c0.3-0.4,0.7-0.8,0.7-0.9c-0.1-0.1-0.6,0.2-1,0.6c-0.2,0.2-0.3,0.3-0.4,0.5c0-0.3-0.1-0.6-0.2-0.9c0,0,0-0.1,0-0.1   c0-0.1-0.1-0.2-0.2-0.3c0.1-0.1,0.3-0.1,0.4-0.1l0.1,0c0.2,0,0.2-0.2,0.3-0.4c0.1-0.3,0.3-0.7,0.5-0.8l0.1,0c0,0,0.1,0.2,0.1,0.2   C23.9,4.6,24,4.8,24.2,4.8z M21.8,1.4L22,1.6c0.2,0,0.3-0.1,0.4-0.3c0.2-0.3,0.4-0.5,0.7-0.5c0.2,0.1,0.3,0.3,0.2,0.7   c0,0.2,0,0.3,0.1,0.4L23.7,2c0.1,0,0.3,0.1,0.5,0.3c0.1,0.2-0.4,0.6-0.6,0.8c-0.1,0-0.1,0.2-0.1,0.2c0,0.1,0.1,0.2,0.2,0.2   c0.1,0,0.1,0,0.1,0c0,0,0,0.1,0,0.2l-0.3,0C23,4,22.8,4.6,22.6,4.9c0,0,0,0,0,0.1c-0.1,0-0.3,0-0.5,0c0.1-0.2,0.2-0.5,0.2-0.8   c0-0.1,0-0.1,0-0.2c-0.1-0.2-0.3-0.3-0.4-0.3c0.2-0.2,0.4-0.6,0.4-1c0-0.2-0.1-0.5-0.2-0.7c-0.1-0.2-0.4-0.2-0.5-0.2   c0-0.1,0-0.1,0-0.2c0-0.1,0-0.2,0-0.3C21.6,1.3,21.7,1.4,21.8,1.4z M21.5,2.1C21.5,2.1,21.5,2.1,21.5,2.1c0,0.1,0,0.1,0,0.2   C21.5,2.2,21.5,2.1,21.5,2.1z M18.9,4c0.1-0.1,0.3-0.2,0.5-0.2c0.1,0,0.2-0.1,0.2-0.1c0.1-0.2,0-0.3-0.2-0.6   c-0.2-0.3-0.4-0.9-0.2-1c0.1,0,0.2,0,0.3,0l0.4,0c0.1-0.1,0.2-0.2,0.3-0.5c0.1-0.3,0.2-0.7,0.4-0.7c0.2,0,0.3,0.1,0.4,0.2   c0.2,0.3,0.1,0.8,0.1,1c0,0.1,0,0.2,0.1,0.3c0.1,0.1,0.3,0,0.4,0c0,0,0.2-0.1,0.2-0.1c0.3,0.5,0,1-0.3,1.4   c-0.1,0.1-0.2,0.2-0.1,0.4c0.1,0.2,0.2,0.2,0.3,0.2c0.2,0,0.3,0,0.3,0.1c0,0.1-0.2,0.6-0.5,1.1c-0.1,0-0.2,0.1-0.3,0.1   C21,5.6,20.7,5.7,20.4,6c0.1-0.3,0.2-1,0.3-1.6c0.1-0.6,0.1-1.1-0.1-1.1c-0.1,0-0.2,0.6-0.3,1.2c-0.1,0.6-0.3,1.2-0.3,1.4   c-0.1,0-0.1,0-0.1,0c0,0-0.1,0-0.2,0v0c0.1-0.2,0.3-0.5,0.3-0.9c0-0.3-0.1-0.6-0.5-0.9C19.2,4,19,4,18.9,4.1C18.9,4,18.9,4,18.9,4z    M18.3,4.5l0.3,0.2c0.2,0,0.3-0.1,0.4-0.2l0.2-0.2c0.4,0.3,0.3,0.7,0.1,1.2L19.1,6c0.1,0.3,0.4,0.3,0.7,0.3l0.3,0   c-0.1,0.1-0.2,0.3-0.2,0.5c-0.2,0-0.3,0.1-0.4,0.3c-0.2,0.2-0.2,0.4-0.2,0.6c-0.2-0.2-0.4-0.3-0.6-0.3c0-0.1-0.1-0.3-0.2-0.6   c-0.1-0.5-0.3-1.2-0.4-1.1c-0.1,0-0.1,0.6,0,1.2c0,0.2,0.1,0.4,0.1,0.6c-0.1,0-0.2,0.1-0.3,0.2c0-0.1-0.1-0.2-0.2-0.3   c-0.1-0.1-0.2-0.1-0.2-0.1c-0.1-0.1-0.1-0.3-0.2-0.4c0.1-0.1,0.1-0.2,0.1-0.2c0-0.1,0-0.2-0.2-0.4c-0.4-0.4-0.5-0.7-0.5-0.8   c0.1-0.1,0.1-0.1,0.2-0.1c0.1,0,0.3,0,0.4-0.1c0.1-0.1,0.1-0.2,0.1-0.5c0-0.4-0.1-0.8,0.2-0.9C17.8,3.8,18.1,4.3,18.3,4.5z M16.9,5   C16.9,5,16.9,5,16.9,5C16.9,5,16.9,5,16.9,5C16.9,5,16.9,5,16.9,5z M15.2,1.7C15.2,1.7,15.2,1.8,15.2,1.7   C15.2,1.7,15.2,1.7,15.2,1.7L15.2,1.7z M14.9,2.2c0-0.1,0.1-0.1,0.3-0.2c0.1,0,0.3,0,0.4-0.1c0.1-0.1,0-0.2-0.1-0.5   c-0.1-0.3-0.3-0.8-0.1-0.9c0.3-0.1,0.7,0.4,0.9,0.6l0.2,0.2c0.1,0,0.2,0,0.3-0.2C17,1.1,17,1,17.2,1.1c0.2,0.1,0.3,0.7,0.2,1.1   c0,0.1,0,0.2,0.1,0.2c0.1,0,0.2,0,0.3-0.1C17.9,2.3,18,2.3,18,2.3c0.1,0.1,0,0.8,0,1.3c-0.2-0.1-0.4-0.1-0.6-0.1   c-0.1,0-0.2,0.1-0.3,0.2c-0.2-0.1-0.4-0.1-0.6,0c0-0.5-0.1-1.3-0.8-1.4c-0.3,0-0.5,0.2-0.6,0.4C15,2.5,14.9,2.3,14.9,2.2z    M13.1,4.6c0-0.1,0.2-0.2,0.3-0.3c0.1,0,0.2-0.1,0.3-0.2l-0.1-0.3c-0.3-0.5-0.5-0.9-0.2-1.1c0.4-0.3,0.7-0.1,1.2,0.4   c0.2,0.2,0.2,0.3,0.4,0.3c0.2,0,0.3-0.2,0.4-0.3c0.1-0.1,0.2-0.3,0.3-0.3C16,2.7,16,3.5,16,3.8c0,0.2,0,0.3,0.2,0.4   c0.1,0,0.2,0,0.3-0.1c0.1-0.1,0.2-0.1,0.4,0c0,0.1,0,0.2,0,0.3c0,0.2,0,0.3,0,0.4c0,0,0,0,0,0.1c-0.2,0-0.5,0-0.6,0.3   c0,0.1,0,0.1,0,0.2c0,0.2,0.1,0.5,0.3,0.7c-0.2-0.1-0.3-0.1-0.4-0.1c-0.1-0.2-0.2-0.5-0.4-0.8c-0.2-0.3-0.7-0.9-0.9-0.7   c-0.1,0.2,0.3,0.7,0.4,0.9c0.1,0.2,0.2,0.4,0.3,0.5c-0.2-0.1-0.4-0.2-0.6-0.1c-0.3,0.1-0.3,0.5-0.2,0.7c-0.6-0.1-0.6-0.2-0.6-0.2   c0-0.1,0.1-0.1,0.2-0.2l0.3-0.4c0-0.2-0.2-0.3-0.5-0.4C13.5,5.2,13.1,5,13.1,4.6z M12,6.1c0.3-0.4,0.7-0.2,1.2,0.1l0.4,0.2   c0,0,0.1,0,0.1,0c0.1,0.4,0.5,0.5,1,0.6c-0.1,0.3-0.2,0.8,0.2,1.5c0,0,0,0,0,0l0,0c-0.1,0.1-0.1,0.3-0.1,0.4   c0.1,0.3,0.4,0.6,0.8,0.8c0.5,0.2,1,0.2,1.4,0.1l0.1,0l0-0.1c0,0,0,0,0.1,0c0,0.3,0.2,0.5,0.3,0.6c-0.1,0.1-0.2,0.2-0.2,0.3   c-0.1-0.1-0.3-0.1-0.5,0c-0.3-0.5-0.8-0.3-1-0.2c-0.1-0.2-0.3-0.7-0.7-0.8l-0.5,0c-0.1,0-0.1,0.1-0.2,0.1c-0.2-0.4-0.5-0.7-0.8-0.7   c0,0-0.1,0-0.1,0c0-0.1,0-0.3,0-0.4c-0.1-0.2-0.3-0.3-0.6-0.3c-0.5,0-0.6-0.1-0.6-0.4l0.1-0.2l0.1-0.4l-0.2-0.4   C12,6.5,11.9,6.3,12,6.1z M11.8,8.2C11.8,8.2,11.8,8.1,11.8,8.2C11.8,8.1,11.8,8.1,11.8,8.2z M7.8,8c0-0.1,0.2-0.2,0.3-0.2l0.3-0.2   c0.1-0.1,0.1-0.3,0-0.5C8.3,6.7,8.3,6.4,8.5,6.2c0.1-0.1,0.2,0,0.4,0.3l0.3,0.3c0.3,0.1,0.4-0.2,0.5-0.4c0-0.1,0.1-0.2,0.2-0.3   c0.2,0,0.3,0.6,0.3,0.8c0,0.3,0.1,0.5,0.3,0.5c0.2,0.1,0.4-0.1,0.5-0.2c0.1-0.1,0.1-0.1,0.1-0.1c0.2,0.1,0.2,0.5,0.2,0.7   c0,0.3,0,0.5,0.2,0.6c0.1,0.1,0.3,0.2,0.6,0c0.2,0.2,0.6,0.3,0.8,0.3c0,0,0.1,0,0.2,0c0,0,0,0,0,0c0,0.1,0,0.2-0.1,0.3   c-0.8-0.3-1.4-0.1-1.7-0.1l-0.1,0l-0.2,0l-0.5,0.2c0,0,0,0,0,0C10.4,9,10.1,8.8,9.9,8.5C9.5,8,9.3,7.5,9.2,7.6   C8.9,7.7,9.3,8.4,9.5,8.7c0.3,0.4,0.8,0.9,1.1,1.1l0,0c0,0.2,0,0.4,0.1,0.6c-0.3,0.1-0.4,0.4-0.4,0.5c0,0,0,0,0,0c0,0-0.1,0-0.1,0   c0,0,0,0,0,0c-0.1-0.1-0.1-0.3-0.1-0.4C10,10.3,9.9,10.1,9.8,10C9.6,9.9,9.3,10,9.1,10c0,0-0.2,0.1-0.3,0.1C8.8,10.1,8.7,10,8.7,10   c0,0,0,0,0,0C8.6,9.8,8.4,9.5,8.4,9.5c0,0,0,0,0,0c0.1-0.1,0.3-0.2,0.4-0.2c0.1,0,0.2-0.1,0.2-0.2c0-0.2-0.1-0.3-0.3-0.3   C7.9,8.4,7.7,8.1,7.8,8z M7.6,12.2c-0.3,0.1-0.5,0.2-0.5,0.1L7,12.2c0-0.1,0.2-0.3,0.2-0.3c0.1-0.1,0.1-0.1,0.1-0.2   c0-0.1-0.1-0.2-0.2-0.2c-0.2,0-0.8-0.2-0.9-0.5c-0.1-0.1-0.1-0.3,0-0.4c0.1-0.3,0.3-0.3,0.6-0.2l0.3,0c0.2-0.1,0.1-0.3,0.1-0.4   c0-0.2,0-0.3,0.1-0.4c0.2-0.1,0.5,0.1,0.8,0.3l0.3,0.4l0.1,0.2c0.2,0.2,0.4,0.1,0.7,0c0,0,0.3-0.1,0.3-0.1c0,0,0,0,0,0   c0,0.1,0,0.2,0,0.2c0,0.1,0.1,0.3,0.1,0.4c-0.2,0.1-0.4,0.3-0.5,0.5c0,0.1,0,0.1,0,0.2c0,0.5,0.4,0.7,0.6,0.8c0,0,0,0,0,0   c0,0,0,0.1,0,0.1c0,0,0,0.1,0,0.1C9.7,12.9,9.7,13,9.6,13c-0.2,0-0.6,0-0.8,0.4c0,0,0,0,0,0c-0.1-0.1-0.2-0.2-0.3-0.3   c0.2-0.2,0.4-0.5,0.2-0.8C8.4,11.9,7.9,12.1,7.6,12.2z M7,15.6l-0.3,0.1c-0.3,0.2-0.5,0.3-0.8,0.1c-0.1-0.1-0.1-0.1,0.1-0.3   C6,15.4,6.2,15.2,6,15l-0.3-0.2c-0.5-0.1-0.8-0.3-0.7-0.6c0-0.1,0.1-0.2,0.1-0.2c0.1-0.1,0.4,0,0.6,0l0.5,0   c0.2-0.1,0.2-0.3,0.1-0.5c-0.1-0.3,0-0.3,0.1-0.4c0.3-0.1,0.6,0.2,0.8,0.4c0.2,0.1,0.3,0.2,0.4,0.2c0.2,0,0.2-0.2,0.2-0.3   c0-0.2,0.1-0.2,0.2-0.2c0.2,0,0.5,0.3,0.8,0.7c0,0,0,0,0,0c0,0,0,0.1,0,0.1c0,0,0.1,0.2,0.1,0.2l0.1,0.4c-0.2-0.1-0.4-0.1-0.6-0.2   c-0.5-0.1-1.8,0-1.8,0.2c0,0.2,1.2,0.2,1.6,0.2c0.1,0,0.2,0,0.3,0c-0.2,0.1-0.2,0.3-0.2,0.5c0,0.1,0,0.1,0,0.2c0,0,0,0.1,0,0.1   c0,0-0.1,0-0.1,0c-0.3-0.2-0.7-0.4-1.1-0.2C7.1,15.6,7,15.6,7,15.6z M7.5,18C7.5,18,7.5,18,7.5,18C7.5,18,7.5,18,7.5,18z M9.6,17.8   c0,0.1-0.1,0.1-0.1,0.2l-0.1,0c-0.1,0-0.1-0.1-0.2-0.1L9,18c-0.2,0.2-0.8,0.6-1,0.4c-0.1-0.1-0.1-0.2-0.1-0.3l-0.1-0.4l-0.4-0.1   c-0.4,0-0.6,0-0.7-0.3c0-0.1,0-0.1,0-0.2C6.7,17.1,6.9,17,7,17l0.4-0.2l0-0.5l0-0.2c0.2-0.1,0.4,0,0.6,0.2c0.2,0.1,0.4,0.3,0.6,0.1   c0.2-0.1,0.2-0.4,0.2-0.6c0-0.1,0-0.3,0-0.3c0.2-0.1,0.5-0.1,0.7,0c0,0,0,0,0,0c0.2,0.2,0.4,0.3,0.5,0.4c-0.1,0.2,0,0.5,0.2,0.8   c0.1,0.1,0.2,0.2,0.4,0.2c-0.1,0.1-0.2,0.2-0.2,0.3c0,0,0,0,0,0.1c0,0.1,0,0.1,0.1,0.2C10.2,17.3,9.9,17.4,9.6,17.8z M13.2,19   C13.2,19,13.2,19,13.2,19c-0.1-0.2-0.1-0.3-0.3-0.3c-0.1,0-0.2,0-0.3,0.1c-0.2,0.1-0.3,0.4-0.4,0.6c-0.1,0.4-0.3,0.7-0.7,0.8   c-0.2,0-0.2,0-0.2-0.1c0-0.1-0.1-0.4-0.4-0.4l-0.5,0.2c-0.2,0.1-0.7,0.3-0.8,0.3c-0.2-0.3,0-0.5,0.4-0.9l0.2-0.2   c0.1-0.2,0-0.4-0.1-0.4c-0.1-0.1-0.2-0.2,0-0.5c0.2-0.3,0.4-0.3,0.7-0.2c0.1,0,0.3,0,0.4-0.1c0-0.1,0.1-0.1,0.1-0.2   c0-0.1-0.1-0.3-0.2-0.3c0,0-0.1-0.1-0.1-0.1c0,0,0.1,0,0.1,0c0.4-0.2,0.9,0.1,1.1,0.2c0.1,0.1,0.2,0.1,0.3,0.1   c0.1,0,0.1-0.1,0.1-0.1c0-0.1,0-0.2-0.1-0.3l-0.1-0.3c0.1-0.1,0.2-0.1,0.3-0.1c0.1,0,0.2,0,0.3,0c-0.1,0.1-0.1,0.2-0.1,0.3   c0,0.1,0,0.1,0,0.2c0.1,0.1,0.2,0.2,0.3,0.3c-0.6,0.2-0.8,0.4-1.3,0.7c-0.2,0.2-0.7,0.6-0.7,0.7c0,0.1,1.4-0.7,2-0.9   c0.2-0.1,0.5-0.2,0.7-0.2c0,0,0,0,0,0.1C13.6,18.3,13.4,18.8,13.2,19z M13.1,16.9c0,0,0.1-0.1,0.1-0.1l0.1-0.4   c0-0.2-0.2-0.2-0.4-0.2c-0.1,0-0.2,0-0.3,0c0,0,0,0,0,0c0,0,0,0-0.1,0c-0.3,0-0.6-0.1-0.7-0.4c0,0.1,0.1-0.1,0.1-0.1   c0.1-0.1,0.3-0.3,0.1-0.5L11.8,15c-0.4-0.1-0.5-0.1-0.5-0.3c0,0,0.1-0.1,0.2-0.1c0.1-0.1,0.3-0.1,0.3-0.3l-0.2-0.3   c-0.3-0.2-0.4-0.4-0.2-0.6c0.1-0.1,0.1-0.1,0.2-0.1c0.2,0,0.6,0.2,0.7,0.3l0.1,0.1c0.2,0.1,0.3-0.1,0.4-0.3c0,0,0-0.1,0.1-0.1   c0.4,0.1,0.5,0.5,0.6,0.8c0,0.1,0.1,0.2,0.2,0.2c0.1,0,0.2-0.1,0.2-0.2c0.1-0.2,0.2-0.4,0.2-0.4c0.1,0.1,0.4,0.6,0.4,1.3   c0,0.1,0.1,0.2,0.2,0.2c0.1,0,0.2,0,0.3-0.1c0-0.1,0.1-0.2,0.2-0.2c0.1,0.1,0.3,0.4,0.3,1.3l0,0.1c-0.1,0-0.5-0.1-0.8-0.3   c0,0,0,0,0,0c0,0,0,0-0.1,0c-0.2-0.1-0.5-0.3-0.8-0.6c0,0-0.7-0.5-0.8-0.4c-0.1,0.2,0.6,0.7,0.6,0.7c0.3,0.2,0.6,0.4,0.8,0.6   c0,0,0,0,0.1,0c0.3,0.3,0.5,0.5,0.5,0.7C13.9,17.1,13.3,17.1,13.1,16.9z M12.4,27.1L12.4,27.1C12.4,27.1,12.4,27.1,12.4,27.1   C12.4,27.1,12.4,27.1,12.4,27.1z M12.7,29.1c-0.5,0-0.7-0.2-0.7-0.2c-0.1-0.1-0.2,0-0.3,0c0,0-0.2,0.2-0.7,0.2   c-0.5,0-0.8-0.2-1.1-0.5c-0.1-0.2-0.2-0.7,0-1.1c0.2-0.3,0.5-0.5,1-0.5c0.4,0,0.9,0.2,1.2,0.5l0.9,1.4c0,0.1,0.1,0.1,0.2,0.1   C13.1,29.1,13,29.1,12.7,29.1z M19.3,29.1c-0.4,0-0.7-0.2-0.7-0.2c-0.1-0.1-0.2-0.1-0.3,0c0,0-0.2,0.2-0.6,0.2   c-0.4,0-0.8-0.2-1-0.5l-0.9-1.4c0-0.1-0.1-0.1-0.1-0.2c0.1,0,0.2-0.1,0.5-0.1c0.4,0,0.7,0.2,0.7,0.2c0.1,0.1,0.2,0.1,0.3,0   c0,0,0.2-0.2,0.6-0.2c0.4,0,0.7,0.2,1,0.5l0.9,1.4c0,0.1,0.1,0.1,0.1,0.2C19.6,29.1,19.5,29.1,19.3,29.1z M17.3,26.6   c-0.2,0-0.3,0.1-0.4,0.2c-0.2-0.1-0.4-0.2-0.8-0.2c0,0,0,0-0.1,0c0.4-0.2,1-0.2,1.2-0.2C17.3,26.5,17.3,26.6,17.3,26.6z M18.9,27.1   L18.9,27.1C18.9,27.2,18.9,27.1,18.9,27.1C18.9,27.1,18.9,27.1,18.9,27.1z M20.1,26.8c-0.2-0.1-0.4-0.2-0.8-0.2c-0.1,0-0.2,0-0.3,0   c0.1-0.2,0.3-0.5,0.6-0.5c0.1,0,0.2,0,0.3,0.1C20.1,26.4,20.2,26.6,20.1,26.8C20.2,26.8,20.1,26.8,20.1,26.8z M25.7,29.1   c-0.4,0-0.7-0.2-0.7-0.2c-0.1-0.1-0.2-0.1-0.3,0c0,0-0.2,0.2-0.6,0.2c-0.4,0-0.8-0.2-1-0.5l-1-1.4c0,0-0.1-0.1-0.1-0.1   c0.1,0,0.3-0.1,0.5-0.1c0.4,0,0.7,0.2,0.7,0.2c0.1,0.1,0.2,0.1,0.3,0c0,0,0.2-0.2,0.6-0.2c0.4,0,0.7,0.2,1,0.5c0,0,1,1.4,1,1.4   c0,0.1,0.1,0.1,0.1,0.1C26.1,29.1,26,29.1,25.7,29.1z M21.8,18.8c-1.2,1.8-0.6,4.5-0.3,5l0,0.1c0.3,0.5,0.7,1.2,2.3,1.8l0.2,0.1   c1,0.4,1.4,0.6,1.6,0.8c-0.3,0-0.5,0.1-0.6,0.2c-0.2-0.1-0.5-0.2-0.8-0.2c-0.2,0-0.3,0-0.4,0.1c-0.1-0.1-0.1-0.2-0.1-0.3   c-0.3-0.5-0.7-0.7-1.1-0.9c-0.6-0.2-1.2-0.5-1.5-1.4c-0.2-0.5-0.3-1.2-0.3-1.8c0-0.4-0.2-1.8-0.3-1.8c-0.1,0-0.2,1.4-0.2,1.8   c0,0.6,0.1,1.3,0.3,1.9c0.4,1.1,1.2,1.4,1.8,1.7c0.4,0.2,0.8,0.3,1,0.8l0,0.1c-0.2-0.1-0.4-0.1-0.7-0.1c-0.4,0-0.7,0.1-0.9,0.2   c-0.3-0.1-0.5-0.2-0.8-0.2c-0.1,0-0.2,0-0.3,0c0-0.2-0.1-0.5-0.3-0.7c-0.2-0.2-0.4-0.3-0.6-0.3c-0.5,0-0.9,0.4-1.2,1.1c0,0,0,0,0,0   c0,0,0,0,0,0c-0.2-0.1-0.5-0.2-0.8-0.2c0-0.1,0-0.2,0-0.3c0,0,0,0,0,0c0,0,0-0.1,0-0.1c0-0.2,0.1-0.3,0.1-0.5   c0.1-0.1,0.2-0.3,0.3-0.5c0.5-0.9,0.5-1.7,0.4-1.7c-0.1,0-0.5,1-0.8,1.5c-0.1,0.2-0.2,0.3-0.3,0.5c-0.1,0.2-0.1,0.3-0.2,0.5   c-0.5-0.1-1.6-0.1-2,0.8c0,0,0,0,0,0c0,0,0,0,0,0c-0.2-0.1-0.5-0.2-0.8-0.2c-0.4,0-0.6,0.1-0.8,0.2c0,0,0,0-0.1,0   c0.6-0.4,1.5-0.9,2.2-1.2l0.4-0.2c1-0.5,1.6-1.5,1.8-2.9c0-0.1,0-0.2-0.8-1.4c-0.3-0.5-0.8-1.2-0.8-1.4c-0.1-0.4-1.1-1.9-2.2-2.3   c0.2,0,0.4-0.1,0.7-0.2c0.1,0,0.2-0.1,0.3-0.3c0,0,0-0.1,0-0.1c0-0.1,0-0.2-0.1-0.4c0.2,0,0.3,0,0.4,0c0.1-0.1,0.3-0.2,0.2-0.5   c0-0.2,0-0.4-0.1-0.7c0,0,0,0,0,0c0.1,0,0.6,0.4,0.6,1.7c-0.1,2,2,3.4,2.1,3.4c0.1,0,0.2,0,0.2-0.1c0.2-0.1,0.2-0.5,0.2-0.9   c0-0.5-0.1-1.1-0.2-1.7c-0.4-2-1.5-2.4-2-2.5c0,0-0.1,0-0.1,0c0.2-0.1,0.4-0.4,0.5-0.6c0,0,0,0,0.1,0.1c0.3,0.2,0.8,0,1.1-0.1v0   c0,0.4,0,1.2,0.5,2.1l0.6,1.1l0.3,0.5c0,0.1,0.2,0.1,0.2,0.1c0.3-0.1,0.6-2,0.6-2c0-0.1,0-0.2,0-0.3c0-0.4-0.1-1.1-0.3-1.6   c0,0,0,0,0,0c0,0,0.1,0.1,0.1,0.1c0.1,0,0.2,0,0.3-0.2c0.1-0.4,0.2-0.7,0.2-0.9c0,0.1,0,0.1,0,0.2l0.1,0.5c0.1,0.2,0.3,0.1,0.7-0.1   c0.1-0.1,0.3-0.2,0.5-0.2c-0.3,0.4-0.5,0.8-0.7,1.3c-0.2,0.5-0.2,1.1-0.2,1.7c0,0.4,0,0.7-0.1,0.9c0,0,0,0.1,0,0.1   c0,0.1,0,0.2,0.1,0.2c0.1,0.1,0.2,0,0.3-0.1c0.2-0.3,0.8-1,1.3-1.6c-0.1,0.2-0.2,0.4-0.2,0.6c0,0,0,0,0,0c0,0.1,0,0.1,0.1,0.2   c0.1,0,0.2,0.1,0.2,0c0,0,0.3-0.2,0.9-0.1l0,0c0,0,0,0,0,0C23.4,17.3,22.5,17.7,21.8,18.8z M23.2,16.7c0.1-0.2,0.2-0.5,0.4-0.8   c0.1-0.1,0.2-0.2,0.5-0.3c0.1,0,0.7-0.4,0.6-0.5c-0.1-0.1-0.7,0.1-0.8,0.1c-0.3,0.1-0.6,0.3-0.6,0.4c-0.2,0.1-0.4,0.3-0.6,0.5   c-0.1-0.2-0.1-0.4,0-0.5l0.2-0.2c0.2-0.1,0.4-0.2,0.4-0.5c0.3,0,0.6,0.1,0.7,0c0.2-0.1,0.2-0.3,0.3-0.4c0,0,0.1,0,0.1,0   c0.4,0.1,1,0.3,1.5-0.2c0.1-0.1,0.1-0.2,0.1-0.3c0,0,0-0.1-0.1-0.1c0.1,0,0.3,0,0.4,0c0,0,0,0.1,0,0.1c0,0,0,0,0,0   c0,0.1-0.1,0.2-0.2,0.3l-0.3,0.3c0,0,0,0.1,0,0.1c0,0.1,0.1,0.2,0.1,0.3C25.9,15,26,15,26,15.1c0,0,0,0,0,0c0,0.3-0.3,0.3-0.8,0.4   l-0.5,0.1c-0.1,0.1-0.1,0.1-0.1,0.2c0,0.1,0.1,0.2,0.2,0.3l0.1,0.1c0,0-0.1,0.1-0.1,0.1c-0.1,0.1-0.4,0.1-0.6,0.2l-0.3,0.1   C23.6,16.6,23.4,16.6,23.2,16.7z M28.6,19.5c-0.1,0.2-0.3,0.2-0.6,0.1l-0.2-0.1c-0.1,0-0.2,0.1-0.3,0.2c-0.1,0.1-0.1,0.2-0.3,0.2   c-0.2,0-0.4-0.2-0.5-0.4l-0.3-0.2c-0.2,0-0.3,0.1-0.3,0.2c0,0.1-0.1,0.2-0.3,0.1c-0.2,0-0.4-0.6-0.5-0.8c-0.1-0.3-0.2-0.4-0.3-0.5   c-0.2-0.1-0.3,0.1-0.4,0.1c-0.2-0.2-0.3-0.8-0.4-1.3c0.3,0.1,0.8,0.3,1.1,0.6c0.2,0.2,0.7,0.6,0.8,0.5c0.1-0.1-0.3-0.6-0.6-0.8   c-0.3-0.2-0.6-0.4-0.9-0.5c0.8-0.3,1.4-0.2,1.5-0.2c0,0,0,0.1,0,0.1l0,0.2c0,0.2,0.2,0.2,0.7,0.3c0.2,0,0.7,0.1,0.7,0.1   c0,0,0,0,0,0c0,0,0,0.1-0.1,0.2c0,0.1-0.1,0.2-0.1,0.3c0,0,0,0.1,0,0.1c0.1,0.1,0.2,0.2,0.5,0.3c0.1,0,0.4,0.1,0.5,0.2   c0,0-0.1,0.1-0.1,0.1c-0.1,0.1-0.2,0.2-0.2,0.3c0,0,0,0,0,0.1l0.2,0.3c0.2,0.1,0.2,0.2,0.2,0.2C28.7,19.5,28.7,19.5,28.6,19.5z    M27.9,17.7C28,17.8,28,17.8,27.9,17.7C28,17.8,28,17.8,27.9,17.7C27.9,17.8,27.9,17.7,27.9,17.7z M30.1,17.4   c0,0.1-0.1,0.1-0.4,0.1l-0.4,0.1l-0.1,0.3c0,0.1,0,0.1-0.1,0.1c-0.1,0.1-0.2,0-0.4,0l-0.2,0c-0.1,0-0.2-0.1-0.4-0.1   c0,0-0.1,0-0.1,0c0-0.1,0.1-0.2,0.1-0.3c0-0.1,0-0.2-0.1-0.3c-0.1-0.2-0.5-0.2-1-0.3c0,0-0.2,0-0.3,0c0,0,0-0.1,0-0.1   c0-0.1,0-0.2-0.2-0.3c-0.2-0.2-0.7-0.2-1.3-0.1c0-0.1-0.1-0.2-0.1-0.3c0,0,0.1,0,0.1,0c0.2,0,0.6-0.1,0.9-0.3   c0.7,0.4,1.5,0.3,1.9,0.2c0,0,0.1,0,0.1,0c0.1,0.1,0.2,0.2,0.3,0.2l0.5,0c0.2,0,0.5-0.1,0.5,0c0.2,0.1,0.2,0.2,0.1,0.3l-0.1,0.4   c0,0.1,0.2,0.2,0.3,0.2C30.1,17,30.2,17.1,30.1,17.4z M30.7,16.8c0,0,0.1,0,0.1,0C30.8,16.9,30.8,16.8,30.7,16.8z M32.3,16.3   L32.3,16.3C32.3,16.2,32.3,16.2,32.3,16.3C32.3,16.2,32.3,16.2,32.3,16.3C32.3,16.2,32.3,16.3,32.3,16.3z M33.1,15.6   c0,0.1-0.1,0.2-0.1,0.3c-0.2,0.1-0.5,0-0.6,0l-0.4,0c-0.1,0.1-0.1,0.2-0.2,0.4c0,0.2,0,0.3-0.1,0.4c-0.1,0.1-0.5-0.1-0.6-0.2   c-0.2-0.1-0.4-0.2-0.5,0l-0.1,0.2c0,0.1,0,0.1-0.1,0.2c-0.1-0.2-0.3-0.3-0.4-0.3c0,0,0,0,0,0c0-0.1,0.1-0.2,0.1-0.3   c0-0.2-0.1-0.3-0.3-0.5c-0.2-0.2-0.6-0.1-0.9-0.1l-0.3,0c0,0-0.1-0.1-0.1-0.2c0.1,0,0.2-0.1,0.3-0.1c0.1,0,0.2,0,0.3,0   c0.4,0,1.9,0.2,2,0c0-0.2-0.9-0.3-1.5-0.4c0.3-0.3,0.4-0.6,0.5-0.8c0,0,0-0.1,0-0.1c0,0,0,0,0.1,0c0.1,0,0.1,0.1,0.1,0.2   c0,0.1,0.1,0.2,0.2,0.3c0.1,0.1,0.2,0,0.4-0.1c0.2-0.2,0.8-0.5,1-0.3c0.2,0.2,0.1,0.3,0.1,0.4c-0.1,0.2,0,0.3,0.1,0.4l0.2,0.1   C32.9,15.1,33.1,15.3,33.1,15.6z"></path>
	<path id="University_of_Toronto_Mark_Stacked_2_" class="st0" d="M243.2,53.5c8.3,0,13.4,6.6,13.4,13.3c0,7.4-6.5,13.6-13.8,13.6   c-7.6,0-13-6.1-13-13.6C229.8,59.7,236.1,53.5,243.2,53.5 M244.6,78.7c4.8,0,7.9-4.8,7.9-9.4c0-7.3-4.2-14.2-10.5-14.2   c-5,0-8,4.4-8,9.5C234,71.4,237.8,78.7,244.6,78.7z M217.7,54h-5.5c-2.4,0-4.2,0-5.7-0.1c-1.4-0.1-1.7-0.4-1.9-0.6h-0.7   c-0.1,0.3-1.9,5-1.9,5.2l0.8,0.5c0.8-2.3,1.8-3.4,6.4-3.4c0.4,0,1.9,0,3.7,0.2c0.3,3.3,0.3,6.5,0.3,9.8c0,2.1-0.1,9.8-0.3,11.5   c-0.1,0.8-0.5,1.1-2.7,1.5c-0.9,0.1-1.5,0.2-2,0.3l0.2,1c0.7-0.1,1.5-0.1,2.6-0.2c1-0.1,2.3-0.1,4.2-0.1c0.7,0,1.9,0,3,0   c1.1,0.1,2.1,0.1,3.4,0.1l0.1-1.1c-0.3,0-0.6-0.1-1.2-0.1c-0.7-0.1-1.9-0.3-2.3-0.8c-0.8-1-0.8-7.9-0.8-9.8c0-1.6,0.3-9.8,0.3-11.6   c0-0.8,0.3-0.8,2.6-0.8l0.1,0c1,0,1.3,0,1.7,0c4.6,0,4.7,1.1,5.6,3.4l0.8-0.5c-0.1-0.3-1-4.9-1.1-5.2h-0.7   c-0.2,0.3-0.5,0.6-1.9,0.6c-1.8,0.1-3.9,0.1-6,0.1H217.7z M175.1,54c-1,0.1-1.8,0.1-3.1,0.1c-0.7,0-1.3,0-1.9-0.1   c-0.6-0.1-0.7-0.1-1.4-0.1V55c3.8,0.7,4.1,1.3,4,8.8l0,4.6c0,1.7-0.1,6.9-0.3,8.4c-0.2,1.7-0.9,1.8-1.9,2c-0.5,0.1-1.1,0.3-1.5,0.3   v1c1,0,1.9-0.1,2.9-0.1c1-0.1,2.3-0.1,3.2-0.1c1,0,2,0.1,2.9,0.1c0.8,0,1.4,0.1,1.8,0.1v-1.1c-5.1-0.9-5.1-1.6-5-5.9V62.1l0.1-2.1   c0,0,0,0,19,20.2h1.3c-0.1-2.1-0.1-7.6-0.1-10c0-3.4,0-12.3,0.1-13.4c0.2-1.7,2.5-1.8,3.7-1.8v-1c-2.8,0-4.3,0.1-5.5-0.1   c-1.2-0.1-2-0.2-2.7-0.2c-0.6,0-1.2-0.1-1.6,0l-0.2,1c4.3,0.3,4.2,0.6,4.2,10.4c0,1.2,0,6.9,0,8L175.1,54z M151.6,53.5   c8.3,0,13.4,6.6,13.4,13.3c0,7.4-6.5,13.6-13.8,13.6c-7.6,0-13-6.1-13-13.6C138.2,59.7,144.5,53.5,151.6,53.5z M153,78.7   c4.9,0,7.9-4.8,7.9-9.4c0-7.3-4.2-14.2-10.5-14.2c-5,0-8,4.4-8,9.5C142.4,71.4,146.3,78.7,153,78.7z M110.6,53.8   c0.8,0.1,1.6,0.1,2.5,0.1c0.8,0.1,1.6,0.1,2.4,0.1c0.6,0,2.1-0.1,3.6-0.3c1.5-0.1,2.6-0.1,3.5-0.1c5.5,0,9,3,9,7   c0,3.6-3.3,5.8-5.9,6.5c5.4,7.8,6.3,8.9,8.4,10.9c0.3,0.3,1.9,1.8,3.9,1.9l-0.1,1c-4.5,0-6.7-1.7-7.8-2.7   c-3.9-3.1-7.8-9.2-8.5-10.5c-1.1,0-1.6,0-3.4-0.1v3.7c0,1.7-0.1,5.4,0.5,6.5c0.3,0.6,2.3,1.2,3.6,1.5l0.1,1c-1.6-0.3-4-0.5-5.7-0.5   c-0.9,0-4.9,0.3-5.8,0.3l-0.2-0.8c0.4-0.1,2.7-0.6,3.3-1.7c0.4-1,0.4-6.4,0.4-8.2v-6.2c0-8-0.4-8.2-3.6-8.3L110.6,53.8z M118.1,66   c0.8,0.1,2,0.1,2.8,0.1c1,0,6.4,0,6.4-5.2c0-2.4-1.7-5.9-6.3-5.9c-2.7,0-2.7,0.3-2.8,4.7L118.1,66z M92.6,53.5   c8.3,0,13.4,6.6,13.4,13.3c0,7.4-6.5,13.6-13.8,13.6c-7.6,0-13-6.1-13-13.6C79.2,59.7,85.5,53.5,92.6,53.5z M93.9,78.7   c4.9,0,7.9-4.8,7.9-9.4c0-7.3-4.2-14.2-10.5-14.2c-5,0-8,4.4-8,9.5C83.3,71.4,87.2,78.7,93.9,78.7z M66.4,54h-5.5   c-2.4,0-4.2,0-5.7-0.1c-1.4-0.1-1.7-0.4-1.9-0.6h-0.7c-0.1,0.3-1.9,5-1.9,5.2l0.8,0.5c0.8-2.3,1.8-3.4,6.4-3.4c0.4,0,1.9,0,3.7,0.2   c0.3,3.3,0.3,6.5,0.3,9.8c0,2.1-0.1,9.8-0.3,11.5c-0.1,0.8-0.5,1.1-2.6,1.5c-0.9,0.1-1.5,0.2-2,0.3l0.2,1c0.7-0.1,1.5-0.1,2.6-0.2   c1-0.1,2.3-0.1,4.2-0.1c0.7,0,1.9,0,3,0c1.1,0.1,2.1,0.1,3.4,0.1l0.1-1.1c-0.3,0-0.6-0.1-1.2-0.1c-0.7-0.1-1.9-0.3-2.3-0.8   C66,77,66,70,66,68.1c0-1.6,0.3-9.8,0.3-11.6c0-0.8,0.3-0.8,2.6-0.8l0.1,0c1,0,1.3,0,1.7,0c4.6,0,4.7,1.1,5.6,3.4l0.8-0.5   c-0.1-0.3-1-4.9-1.1-5.2h-0.7c-0.2,0.3-0.5,0.6-1.9,0.6c-1.8,0.1-3.9,0.1-6,0.1H66.4z M233.5,31.2c-1.7,0.2-2.1,0.2-3.9,0.2l-2,0   l-2-0.1l-0.7,0l-0.5,0.1v0.1v0.4l0.1,0c0.5,0,1,0.1,1.2,0.4c0.3,0.5,0.3,0.9,0.3,5c0,1.9-0.2,4.1-0.2,4.4c-0.1,0.4-0.7,0.6-1.2,0.7   l-0.1,0l0,0.6l0.1,0c1.1-0.1,2.4-0.1,2.7-0.1l1,0c0,0,1.9,0.1,1.9,0.1l0-0.1v-0.6l-0.1,0c-1.3-0.1-1.8-0.4-1.9-0.5   c-0.1-0.2-0.2-0.9-0.2-1.6c0-0.2,0-0.4,0-0.6c0,0,0-1.7,0.1-2.1c0.1,0,1-0.1,1-0.1c1,0,2.3,0.2,2.7,0.4c0.2,0.1,0.3,0.4,0.4,0.9   l0,0.1h0.6l0-0.1c0.1-1.2,0.1-2.4,0.1-3.3l0-0.1h-0.6l0,0.1c-0.1,0.8-0.2,1.2-2.4,1.2c-0.7,0-0.9,0-1.5-0.1c0,0,0,0-0.1,0   c0-0.2,0-0.4,0-0.7c0-0.3,0-0.5,0-0.8c0,0,0-2.4,0-2.8c0.7-0.1,1.2-0.1,1.4-0.1c1.3,0,2.4,0.2,2.8,0.6c0.4,0.3,0.5,0.7,0.6,1.1   l0,0.1l0.6,0l0-0.1c0-0.2,0-0.8,0.1-1.4l0.1-1.2L233.5,31.2z M216,31.1c3.8,0,6.1,3,6.1,5.9c0,3.3-2.9,6.1-6.3,6.1   c-3.3,0-5.9-2.7-5.9-6.1C209.9,33.9,212.7,31.1,216,31.1z M216.6,42.2c2.1,0,3.4-2.1,3.4-4c0-3-1.7-6.1-4.6-6.1   c-2.3,0-3.5,2-3.5,4.1C211.9,39.1,213.7,42.2,216.6,42.2z M194.4,31.4V32l0.1,0c0.6,0,1.4,0.1,1.4,0.5c0,0.1-0.2,0.8-2.4,4   c-0.9-1.1-3-3.8-3-4.1c0-0.1,0-0.3,1.3-0.3h0.1v-0.7l-1.1,0l-2.1,0l-2.3,0v0.1V32h0.1c0.6,0,0.9,0.1,1.2,0.3   c0.7,0.5,3.2,3.7,3.3,3.8c0,0,1,1.3,1.1,1.4c0.1,0.8,0.1,1.7,0.1,2.9c0,1.7,0,2.1-1.6,2.1l-0.1,0l0,0.6l0.1,0c0.2,0,1,0,1.7-0.1   l1.2-0.1l0.9,0l0.2,0l1.3,0.1l0-0.1v-0.5l-0.1,0c-1.6-0.1-1.6-0.3-1.6-0.6c0,0,0-0.1,0-0.1c0-0.7-0.1-1.5-0.1-2.4   c0-0.6,0-1.3,0-2.1c0,0,2.3-3.5,2.3-3.5c0.7-1.1,1.1-1.7,2.7-1.7l0.1,0v-0.7l-0.1,0c-0.2,0-0.8,0-1.4,0l-0.7,0l-0.9-0.1l-0.6,0   c0,0-0.9,0-0.9,0h-0.1V31.4z M184.1,31.1h-0.4l0,0c-0.1,0.1-0.2,0.2-0.8,0.2l-2.3,0h-3.2l-2.5,0c-0.6,0-0.7-0.2-0.8-0.2l0,0h-0.4   l0,0.1c0,0.1-0.8,2.2-0.9,2.3l0,0.1l0.5,0.3l0-0.1c0.4-1,0.8-1.4,2.8-1.4c0.6,0,1.2,0,1.6,0.1c0.1,1.6,0.1,3.1,0.1,4.2   c0,1.1,0,4.3-0.1,5c0,0.2-0.1,0.4-1.1,0.6c0,0-0.7,0.1-0.7,0.1l-0.3,0l0.1,0.6l1-0.1l0.3,0l1.9,0l0.3,0l1,0l0.8,0l0.8,0l0-0.1   l0.1-0.6l-0.5,0l-0.1,0c-0.5-0.1-0.8-0.2-1-0.3c-0.1-0.1-0.4-0.9-0.4-4.2l0.1-2.4l0.1-2.7c0-0.2,0-0.2,1.1-0.2l0,0l0.6,0l0.1,0   c1.9,0,2,0.4,2.3,1.2l0.1,0.3l0.5-0.3l-0.1-0.6C184.4,32,184.3,31.2,184.1,31.1L184.1,31.1L184.1,31.1z M164.8,31.4V32l0.1,0   c1.5,0.1,1.8,0.4,1.9,0.7c0.2,0.5,0.3,3.8,0.3,5v0.2c0,1,0,3.3-0.3,3.9c-0.1,0.2-0.5,0.5-2,0.6l-0.1,0v0.6l1.8-0.1h1.7L171,43   l0-0.1l0-0.5h-0.1c-1.2,0-1.6,0-1.8-0.5c-0.1-0.3-0.1-1.4-0.1-3.3c0-4.5,0-5.7,0.3-6.1c0.3-0.5,1.4-0.4,1.7-0.4l0.1,0v-0.7h-1.4   c0,0-1.9,0.1-1.9,0.1l-1.3,0l-0.6,0l-1,0L164.8,31.4L164.8,31.4z M154.6,34.5c0,2,1.7,2.7,2.9,3.2l0.1,0c2.1,0.9,3.1,1.2,3.1,2.7   c0,0.9-0.6,1.8-2,1.8c-1.2,0-2.1-0.5-2.7-1c-0.6-0.6-0.8-1.4-0.9-1.7l0-0.1h-0.7l0,0.1c0.4,1.3,0.5,1.9,0.5,3.3V43l0.6,0l0-0.1   c0-0.1,0.1-0.3,0.3-0.3c0.1,0,0.5,0.1,0.7,0.1l0.1,0l0.2,0c0.3,0.1,0.7,0.2,1.4,0.2c2.8,0,4.3-1.7,4.3-3.3c0-2.3-2.2-3.2-3.7-3.7   c-1.4-0.5-2.5-1-2.5-2.2c0-1.1,0.9-1.9,2.2-1.9c1.2,0,2,0.6,2.2,0.9c0.5,0.4,0.6,0.9,0.7,1.4l0,0.1l0.1,0h0.5l-0.2-1.5   c0-0.6,0.1-1.1,0.2-1.4l0-0.1l-0.5-0.1c0,0-0.3,0.2-0.4,0.2c-1.1-0.3-1.6-0.4-2.3-0.4C156.3,31.2,154.6,32.6,154.6,34.5z    M146.4,31.2c2.4,0,4.1,1.3,4.1,3.2c0,1.5-1.3,2.5-2.6,2.9c2.3,3.3,2.8,3.8,3.7,4.6c0,0,0.8,0.7,1.7,0.8l0.1,0l0,0.6h-0.1   c-2,0-3-0.8-3.6-1.2c-1.8-1.4-3.5-4-3.8-4.6c-0.1,0-1.2,0-1.4-0.1c0,0.2,0,1.5,0,1.5s0,0.4,0,0.5c0,0.8,0,1.9,0.2,2.3   c0.1,0.2,1,0.5,1.5,0.6l0.1,0l0,0.6l-0.1,0c-0.7-0.1-1.8-0.2-2.5-0.2c-0.4,0-2.2,0.1-2.6,0.1l-0.1,0l-0.1-0.5l0.1,0   c0.2,0,1.2-0.3,1.4-0.7c0.2-0.4,0.2-2.4,0.2-3.3v-0.3v-2.7c0-3.5-0.1-3.5-1.5-3.6l-0.1,0l0-0.7l0.2,0c0,0,1,0,1,0l1.1,0   c0.3,0,0.9-0.1,1.6-0.1l0,0l0,0L146.4,31.2z M144.6,36.7c0.3,0,0.8,0,1.1,0c1,0,2.8-0.3,2.8-2.2c0-1-0.7-2.5-2.7-2.5   c-1.1,0-1.1,0-1.1,2C144.6,34,144.6,36.5,144.6,36.7z M137.7,31.3c-1.4,0.1-3.7,0.1-5.1,0.1c-0.9,0-3.2-0.1-4-0.1h-0.1v0.6l0.1,0   c1,0.2,1,0.2,1.1,0.4c0.1,0.3,0.2,1.3,0.2,4.8c0,1.5-0.1,3.9-0.3,4.7c-0.1,0.4-0.6,0.5-1.3,0.6l-0.1,0l0.1,0.6l0.1,0   c1.6-0.2,3.4-0.2,4.6-0.2l4.6,0.1l0-0.1c0.2-0.4,0.6-1,0.9-2.8l0-0.1l-0.6,0l0,0.1c-0.4,1.1-1.2,2.1-4,2.1c-1,0-1.4-0.1-2-0.3   c-0.1-0.3-0.1-0.8-0.1-2.2c0,0,0-1.7,0-2.1c0.7-0.1,1.4-0.1,1.7-0.1c2.3,0,2.4,0.2,2.7,1.6l0,0.1h0.5v-0.1c0-1.5,0-1.9,0.1-3.5   l0-0.1h-0.6l0,0.1c-0.2,0.8-0.4,1-0.7,1.1c-1.7,0.2-3.3,0.1-3.7,0.1c0-0.1-0.1-1.5-0.1-1.5c0-0.7,0.1-1.9,0.2-2.7   c0.6-0.1,1.7-0.2,2.2-0.2c1.3,0,2,0.2,2.4,0.5c0.3,0.3,0.3,0.7,0.3,1.2l0,0.1l0.7,0.1v-0.1c0-0.1,0.1-0.6,0.1-0.9l0.1-0.4   c0.1-0.6,0.1-0.9,0.1-1.2v-0.1H137.7z M112.7,31.4l0,0.5l0.1,0c1.6,0.2,1.6,0.2,2.9,2.8l2.6,5.3c0,0,0,0,0,0   c0.4,0.9,1.1,2.3,1.3,3.1l0,0.1h0.6l0-0.1c0.4-1.1,0.7-2,1.6-3.8l2.8-5.5c0.6-1.3,0.9-1.6,2.2-1.9l0.1,0v-0.6l-0.1,0   c-0.7,0-1.4,0-2.1,0c0,0-2.2-0.1-2.2-0.1l0,0.1l0,0.6l0.1,0c0.6,0,1.4,0.1,1.4,0.7c0,0.3-0.2,0.9-0.4,1.3l0,0.1   c-0.6,1.3-0.9,2-1.3,2.8l-1.3,2.6c0,0-0.2,0.4-0.3,0.7c-1.3-2-3.6-7.5-3.6-7.8c0-0.1,0-0.2,1-0.3l0.3,0v-0.6l-1.8,0l-1,0   c-0.7,0-2,0-2.7-0.1l-0.1,0L112.7,31.4z M104.9,31.4V32l0.1,0c1.5,0.1,1.8,0.4,1.9,0.7c0.2,0.5,0.3,3.8,0.3,5v0.2   c0,1,0,3.3-0.3,3.9c-0.1,0.2-0.5,0.5-2,0.6l-0.1,0v0.6l1.8-0.1h1.7L111,43l0-0.1l0-0.5h-0.1c-1.2,0-1.6,0-1.8-0.5   c-0.1-0.3-0.1-1.4-0.1-3.3c0-4.5,0-5.7,0.3-6.1c0.3-0.5,1.4-0.4,1.7-0.4l0.1,0v-0.7h-1.4c0,0-1.9,0.1-1.9,0.1l-1.3,0l-0.5,0   L104.9,31.4L104.9,31.4L104.9,31.4z M98.2,31.2L98.2,31.2L98.2,31.2L98,31.8l0.1,0c2.2,0.1,1.9,0.2,1.9,4.8c0,0,0,2.8,0,3.1   c-0.2-0.2-8-8.4-8-8.4l0,0l-1.3,0l-0.9,0l-0.1,0l-0.8-0.1l0,0.1l0,0.6l0.1,0c1.6,0.3,1.9,0.5,1.8,3.8l0,2c0,0.7-0.1,3-0.2,3.7   c-0.1,0.7-0.3,0.7-0.8,0.8c0,0-0.8,0.2-0.8,0.2l0,0.1v0.5l2.7-0.1l1.3,0.1c0,0,0.9,0.1,0.9,0.1l0-0.1v-0.6l-0.1,0   c-2.2-0.4-2.2-0.6-2.2-2.5L92,35c0,0,0-0.4,0-0.7c0.4,0.4,8.4,8.7,8.3,8.7l0,0l0.8,0l0-0.1c-0.1-0.9-0.1-3.3-0.1-4.4   c0-1.6,0.1-5.2,0.2-5.7c0.1-0.8,0.8-1,1.4-1h0.1v-0.6h-0.1c-1.2,0-1.9,0.1-2.4,0l-0.4,0l-0.9,0L98.2,31.2z M77.2,31.3l-0.7,0   c-0.8,0-2.4,0-2.6,0.1l-0.1,0l0,0.6H74c0.8,0,1,0,1.2,0.1c0.2,0.1,0.4,1.5,0.4,3.2l-0.1,3.8c0,2.6,1.7,4,4.8,4c5,0,5.2-2.7,5.3-8.2   l0-1.7l0-0.1c0-0.8,0-1.1,1.4-1.2l0.1,0l0-0.6l-0.3,0l-2,0l-1.6,0l-0.7,0l0,0.1V32h0.1c0.6,0,1.2,0,1.4,0.3   c0.4,0.4,0.5,1.9,0.5,2.7v1c0,3.8-0.3,6.2-3.8,6.2c-3.3,0-3.3-2.6-3.3-3.8v-2.2c0-4,0.2-4,1.9-4.2l0.1,0v-0.7l-0.1,0   C78.9,31.3,77.9,31.3,77.2,31.3z"></path>
</g>
</svg>
