<?xml version="1.0" encoding="UTF-8"?>
<svg width="256" height="256" viewBox="0 0 256 256" fill="none" xmlns="http://www.w3.org/2000/svg">
  <rect width="256" height="256" fill="none"/>
  <g>
    <path d="M78 150c-20-8-36-30-30-50 6-20 30-26 50-18 14 6 28 20 38 38 10-22 26-38 42-44 20-8 44-2 50 18 6 20-10 42-30 50-12 5-26 6-40 4 8 10 14 22 16 32 3 18-6 34-22 38-16 4-32-6-36-24-2-10-1-22 2-34-16 4-32 4-46-2z" fill="#7AC943"/>
    <circle cx="128" cy="128" r="120" stroke="#7AC943" stroke-opacity="0.2" stroke-width="4"/>
  </g>
</svg>
