<?xml version="1.0" encoding="UTF-8" standalone="no"?>
<!DOCTYPE svg PUBLIC "-//W3C//DTD SVG 1.1//EN" "http://www.w3.org/Graphics/SVG/1.1/DTD/svg11.dtd">
<svg width="357" height="110" viewBox="0 0 357 110" version="1.1" xmlns="http://www.w3.org/2000/svg" xmlns:xlink="http://www.w3.org/1999/xlink" xml:space="preserve" xmlns:serif="http://www.serif.com/" style="fill-rule:evenodd;clip-rule:evenodd;stroke-linejoin:round;stroke-miterlimit:2;">
    <path d="M323.09,55.12L320.54,55.12L320.54,50.42L323.09,50.42C323.852,50.369 324.609,50.584 325.23,51.03C325.735,51.466 326.008,52.114 325.97,52.78C326.008,53.44 325.734,54.082 325.23,54.51C324.612,54.96 323.853,55.177 323.09,55.12M323.26,47.87L317.4,47.87L317.4,61.4L320.54,61.4L320.54,57.67L323.26,57.67C324.33,57.699 325.394,57.497 326.38,57.08C327.202,56.726 327.899,56.134 328.38,55.38C329.339,53.778 329.339,51.772 328.38,50.17C327.893,49.421 327.198,48.83 326.38,48.47C325.395,48.049 324.331,47.845 323.26,47.87M309.66,61.4L312.79,61.4L312.79,47.87L309.66,47.87L309.66,61.4ZM301.91,47.87L301.91,53.21L295.76,53.21L295.76,47.87L292.63,47.87L292.63,61.4L295.76,61.4L295.76,55.85L301.91,55.85L301.91,61.4L305,61.4L305,47.87L301.91,47.87ZM283.19,61.63C284.264,61.662 285.333,61.472 286.33,61.07C287.112,60.766 287.79,60.241 288.28,59.56C288.707,58.936 288.933,58.196 288.93,57.44C288.97,56.66 288.717,55.893 288.22,55.29C287.758,54.773 287.179,54.375 286.53,54.13C285.7,53.842 284.856,53.598 284,53.4C283.239,53.254 282.495,53.03 281.78,52.73C281.357,52.578 281.07,52.179 281.06,51.73C281.054,51.271 281.295,50.843 281.69,50.61C282.28,50.279 282.955,50.129 283.63,50.18C284.952,50.202 286.246,50.571 287.38,51.25L288.38,48.87C287.71,48.457 286.977,48.156 286.21,47.98C285.383,47.771 284.533,47.667 283.68,47.67C282.606,47.64 281.537,47.831 280.54,48.23C279.762,48.538 279.091,49.066 278.61,49.75C278.191,50.381 277.972,51.123 277.98,51.88C277.939,52.665 278.188,53.437 278.68,54.05C279.135,54.579 279.716,54.985 280.37,55.23C281.198,55.523 282.043,55.767 282.9,55.96C283.58,56.12 284.11,56.26 284.5,56.39C284.862,56.497 285.201,56.67 285.5,56.9C285.74,57.095 285.877,57.391 285.87,57.7C285.869,58.141 285.627,58.548 285.24,58.76C284.619,59.064 283.929,59.198 283.24,59.15C282.429,59.145 281.623,59.017 280.85,58.77C280.111,58.55 279.412,58.213 278.78,57.77L277.71,60.13C278.439,60.649 279.255,61.032 280.12,61.26C281.131,61.55 282.178,61.694 283.23,61.69M271.63,52.84C271.665,53.503 271.392,54.146 270.89,54.58C270.269,55.034 269.507,55.253 268.74,55.2L266.19,55.2L266.19,50.42L268.74,50.42C269.505,50.369 270.266,50.584 270.89,51.03C271.395,51.466 271.668,52.114 271.63,52.78M275,61.4L272,57.05C272.816,56.702 273.512,56.121 274,55.38C274.497,54.606 274.752,53.7 274.73,52.78C274.804,50.92 273.713,49.198 272,48.47C271.015,48.049 269.951,47.845 268.88,47.87L263,47.87L263,61.4L266.13,61.4L266.13,57.63L269,57.63L271.61,61.4L275,61.4ZM251.63,58.89L251.63,55.76L257.91,55.76L257.91,53.32L251.63,53.32L251.63,50.38L258.74,50.38L258.74,47.87L248.52,47.87L248.52,61.4L259,61.4L259,58.89L251.63,58.89ZM234.26,58.83L234.26,50.44L237.12,50.44C238.305,50.383 239.468,50.788 240.36,51.57C241.953,53.29 241.953,55.98 240.36,57.7C239.468,58.482 238.305,58.887 237.12,58.83L234.26,58.83ZM231.12,61.4L237.27,61.4C238.618,61.427 239.953,61.139 241.17,60.56C242.255,60.038 243.168,59.215 243.8,58.19C245.039,55.985 245.039,53.285 243.8,51.08C243.168,50.055 242.255,49.232 241.17,48.71C239.953,48.131 238.618,47.843 237.27,47.87L231.12,47.87L231.12,61.4ZM218.45,56.13L220.6,50.94L222.74,56.13L218.45,56.13ZM224.93,61.4L228.21,61.4L222.16,47.87L219.07,47.87L213.07,61.4L216.28,61.4L217.47,58.5L223.76,58.5L224.93,61.4ZM203.1,58.89L203.1,55.76L209.38,55.76L209.38,53.32L203.1,53.32L203.1,50.38L210.21,50.38L210.21,47.87L200,47.87L200,61.4L210.48,61.4L210.48,58.89L203.1,58.89ZM187,61.4L196.92,61.4L196.92,58.85L190.13,58.85L190.13,47.85L187,47.85L187,61.4Z" style="fill:#758592;fill-rule:nonzero;"/>
    <path d="M283.87,27.44L283.87,35.66L277.15,27.44L274.55,27.44L274.55,41L277.65,41L277.65,32.76L284.39,41L287,41L287,27.44L283.87,27.44ZM261.87,35.7L264,30.51L266.14,35.7L261.87,35.7ZM268.36,41L271.64,41L265.59,27.47L262.5,27.47L256.5,41L259.71,41L260.91,38.1L267.19,38.1L268.36,41ZM248.91,41.23C250.004,41.247 251.09,41.039 252.1,40.62C253.033,40.222 253.856,39.604 254.5,38.82L252.5,36.96C251.674,37.988 250.419,38.582 249.1,38.57C248.316,38.58 247.541,38.391 246.85,38.02C246.205,37.661 245.674,37.127 245.32,36.48C244.574,35.078 244.574,33.392 245.32,31.99C245.675,31.345 246.205,30.815 246.85,30.46C247.539,30.084 248.315,29.895 249.1,29.91C250.413,29.896 251.664,30.478 252.5,31.49L254.5,29.64C253.857,28.864 253.037,28.254 252.11,27.86C249.866,26.946 247.333,27.048 245.17,28.14C244.084,28.716 243.175,29.577 242.54,30.63C241.262,32.86 241.262,35.61 242.54,37.84C243.171,38.898 244.081,39.763 245.17,40.34C246.322,40.945 247.609,41.251 248.91,41.23M234.65,41L237.78,41L237.78,27.44L234.65,27.44L234.65,41ZM227.54,32.38C227.575,33.043 227.302,33.686 226.8,34.12C226.182,34.572 225.424,34.792 224.66,34.74L222.1,34.74L222.1,30L224.66,30C225.422,29.95 226.179,30.166 226.8,30.61C227.305,31.046 227.578,31.694 227.54,32.36M231,41L228,36.65C229.738,35.965 230.861,34.247 230.79,32.38C230.884,30.48 229.761,28.718 228,28C227.015,27.579 225.951,27.375 224.88,27.4L219,27.4L219,41L222.13,41L222.13,37.2L225,37.2L227.6,41L231,41ZM215.44,30L215.44,27.44L205.21,27.44L205.21,41L208.34,41L208.34,36L214.61,36L214.61,33.53L208.34,33.53L208.34,30L215.44,30ZM192.54,35.75L194.69,30.56L196.83,35.75L192.54,35.75ZM199,41L202.28,41L196.23,27.47L193.14,27.47L187.14,41L190.35,41L191.54,38.1L197.83,38.1L199,41Z" style="fill:#d00d2d;fill-rule:nonzero;"/>
    <path d="M44.68,27.32L60.11,27.32L70.84,54.5L55.41,54.5L44.68,27.32Z" style="fill:#d00d2d;fill-rule:nonzero;"/>
    <path d="M81.57,81.64L73.56,61.29L35.31,61.29L27.29,81.64L42.73,81.64L45.45,74.72L63.41,74.72L66.14,81.64L81.57,81.64Z" style="fill:#758592;fill-rule:nonzero;"/>
    <rect x="159.47" y="27.35" width="14.1" height="27.17" style="fill:#d00d2d;"/>
    <path d="M87.02,81.64L87.02,61.29L101.12,61.29L101.12,68.08L127.01,68.08L127.01,81.64L87.02,81.64Z" style="fill:#758592;fill-rule:nonzero;"/>
    <rect x="87.02" y="27.35" width="14.1" height="27.17" style="fill:#d00d2d;"/>
    <path d="M152.66,81.54C141.45,81.54 132.46,73.39 131.74,62.54L131.66,61.24L145.72,61.24L145.9,62.24C146.719,65.288 149.504,67.423 152.66,67.423C155.816,67.423 158.601,65.288 159.42,62.24L159.6,61.24L173.66,61.24L173.57,62.54C172.86,73.34 163.86,81.54 152.66,81.54" style="fill:#758592;fill-rule:nonzero;"/>
    <rect x="131.74" y="27.35" width="14.11" height="27.17" style="fill:#d00d2d;"/>
    <path d="M329.11,68.1L326,68.1L322.4,74.1L318.8,68.1L315.49,68.1L320.71,76.77L320.71,81.59L323.83,81.59L323.83,76.81L329.11,68.1ZM305.17,81.59L308.29,81.59L308.29,70.59L312.6,70.59L312.6,68.1L300.85,68.1L300.85,70.64L305.17,70.64L305.17,81.59ZM293.9,81.59L297,81.59L297,68.1L293.9,68.1L293.9,81.59ZM283.69,81.82C284.764,81.848 285.832,81.658 286.83,81.26C287.608,80.953 288.281,80.429 288.77,79.75C289.196,79.129 289.423,78.393 289.42,77.64C289.46,76.863 289.207,76.099 288.71,75.5C288.244,74.978 287.657,74.58 287,74.34C286.17,74.052 285.326,73.808 284.47,73.61C283.717,73.461 282.981,73.24 282.27,72.95C281.849,72.795 281.563,72.398 281.55,71.95C281.54,71.493 281.777,71.064 282.17,70.83C282.762,70.504 283.436,70.355 284.11,70.4C285.427,70.424 286.716,70.789 287.85,71.46L288.85,69.1C288.183,68.689 287.453,68.388 286.69,68.21C285.866,68.001 285.02,67.897 284.17,67.9C283.099,67.87 282.034,68.061 281.04,68.46C280.266,68.765 279.598,69.29 279.12,69.97C278.7,70.6 278.477,71.342 278.48,72.1C278.442,72.883 278.695,73.652 279.19,74.26C279.641,74.787 280.22,75.19 280.87,75.43C281.698,75.727 282.543,75.974 283.4,76.17C284.067,76.323 284.597,76.463 284.99,76.59C285.353,76.693 285.693,76.866 285.99,77.1C286.234,77.293 286.375,77.589 286.37,77.9C286.348,78.322 286.104,78.703 285.73,78.9C285.11,79.207 284.42,79.341 283.73,79.29C282.918,79.29 282.112,79.162 281.34,78.91C280.606,78.684 279.911,78.347 279.28,77.91L278.22,80.26C278.944,80.778 279.758,81.157 280.62,81.38C281.624,81.673 282.664,81.821 283.71,81.82M271.33,73C271.368,73.658 271.098,74.298 270.6,74.73C269.982,75.182 269.224,75.402 268.46,75.35L265.92,75.35L265.92,70.64L268.46,70.64C269.222,70.59 269.979,70.806 270.6,71.25C271.101,71.688 271.371,72.336 271.33,73M274.74,81.59L271.74,77.25C272.554,76.903 273.249,76.326 273.74,75.59C274.232,74.818 274.483,73.916 274.46,73C274.487,72.079 274.239,71.171 273.75,70.39C273.261,69.645 272.566,69.058 271.75,68.7C270.768,68.28 269.708,68.075 268.64,68.1L262.8,68.1L262.8,81.59L265.92,81.59L265.92,77.83L268.79,77.83L271.39,81.59L274.74,81.59ZM250.66,79.08L250.66,76L256.92,76L256.92,73.53L250.66,73.53L250.66,70.61L257.75,70.61L257.75,68.1L247.55,68.1L247.55,81.59L258,81.59L258,79.08L250.66,79.08ZM240.74,68.08L236.58,77.71L232.48,68.08L229.11,68.08L234.93,81.57L238,81.57L243.83,68.08L240.74,68.08ZM222.28,81.59L225.4,81.59L225.4,68.1L222.28,68.1L222.28,81.59ZM213.8,68.1L213.8,76.29L207.09,68.1L204.51,68.1L204.51,81.59L207.59,81.59L207.59,73.4L214.31,81.59L216.88,81.59L216.88,68.1L213.8,68.1ZM193.1,81.82C193.284,81.838 193.468,81.847 193.653,81.847C196.72,81.847 199.243,79.324 199.243,76.257C199.243,76.055 199.232,75.852 199.21,75.65L199.21,68.1L196.13,68.1L196.13,75.54C196.21,76.516 195.936,77.489 195.36,78.28C194.783,78.893 193.96,79.216 193.12,79.16C191.12,79.16 190.12,77.953 190.12,75.54L190.12,68.1L187,68.1L187,75.65C186.977,75.855 186.966,76.061 186.966,76.268C186.966,79.329 189.485,81.848 192.546,81.848C192.731,81.848 192.916,81.838 193.1,81.82" style="fill:#758592;fill-rule:nonzero;"/>
</svg>
