<svg width="96" height="96" viewBox="0 0 96 96" fill="none" xmlns="http://www.w3.org/2000/svg">
  <rect width="96" height="96" rx="24" fill="#F1F5F9"/>
  <circle cx="48" cy="36" r="18" fill="#CBD5F5"/>
  <path d="M48 54C30.3269 54 16 68.3269 16 86V88H80V86C80 68.3269 65.6731 54 48 54Z" fill="#B5D1FF"/>
  <path d="M48 34C42.4772 34 38 38.4772 38 44C38 49.5228 42.4772 54 48 54C53.5228 54 58 49.5228 58 44C58 38.4772 53.5228 34 48 34Z" fill="#2563EB" fill-opacity="0.45"/>
  <path d="M48 58C35.2975 58 24.298 66.006 20 77.252C27.0147 84.0598 36.975 88 48 88C59.025 88 68.9853 84.0598 76 77.252C71.702 66.006 60.7025 58 48 58Z" fill="#2563EB" fill-opacity="0.35"/>
</svg>
